<?xml version="1.0" encoding="UTF-8"?>
<svg xmlns="http://www.w3.org/2000/svg" xmlns:xlink="http://www.w3.org/1999/xlink" width="100px" height="100px" viewBox="0 0 100 100" version="1.1">
<g id="surface1">
<path style=" stroke:none;fill-rule:nonzero;fill:rgb(25.098039%,25.098039%,25.098039%);fill-opacity:1;" d="M 80 40.527344 C 79.472656 40.527344 78.421875 40.527344 77.894531 40 C 64.210938 26.316406 41.578125 26.316406 27.367188 40 C 26.316406 41.050781 24.738281 41.050781 23.683594 40 C 22.632812 38.949219 23.15625 36.84375 24.210938 36.316406 C 40 20.527344 66.316406 20.527344 82.105469 36.316406 C 83.15625 37.367188 83.15625 38.949219 82.105469 40 C 81.578125 40.527344 81.050781 40.527344 80 40.527344 Z M 80 40.527344 "/>
<path style=" stroke:none;fill-rule:nonzero;fill:rgb(25.098039%,25.098039%,25.098039%);fill-opacity:1;" d="M 87.894531 32.632812 C 87.367188 32.632812 86.316406 32.632812 85.789062 32.105469 C 76.84375 23.15625 65.261719 18.421875 52.632812 18.421875 C 40 18.421875 28.949219 23.15625 20 32.105469 C 18.949219 33.15625 17.367188 33.15625 16.316406 32.105469 C 15.261719 31.050781 15.261719 29.472656 16.316406 28.421875 C 26.316406 18.421875 38.949219 13.15625 53.15625 13.15625 C 67.367188 13.15625 80 18.421875 90 28.421875 C 91.050781 29.472656 91.050781 31.050781 90 32.105469 C 89.472656 32.632812 88.421875 32.632812 87.894531 32.632812 Z M 87.894531 32.632812 "/>
<path style=" stroke:none;fill-rule:nonzero;fill:rgb(25.098039%,25.098039%,25.098039%);fill-opacity:1;" d="M 71.050781 81.578125 L 67.367188 77.894531 C 71.578125 73.683594 73.683594 68.421875 73.683594 63.15625 C 73.683594 51.578125 64.210938 42.105469 52.632812 42.105469 C 41.050781 42.105469 31.578125 51.578125 31.578125 63.15625 C 31.578125 68.949219 33.683594 74.210938 37.894531 77.894531 L 34.210938 81.578125 C 28.949219 76.84375 26.316406 70 26.316406 63.15625 C 26.316406 48.421875 37.894531 36.84375 52.632812 36.84375 C 67.367188 36.84375 78.949219 48.421875 78.949219 63.15625 C 78.949219 70 76.316406 76.84375 71.050781 81.578125 Z M 71.050781 81.578125 "/>
<path style=" stroke:none;fill-rule:nonzero;fill:rgb(25.098039%,25.098039%,25.098039%);fill-opacity:1;" d="M 60.527344 78.949219 L 44.738281 78.949219 C 43.15625 78.949219 42.105469 77.894531 42.105469 76.316406 C 42.105469 74.738281 43.15625 73.683594 44.738281 73.683594 L 60.527344 73.683594 C 62.105469 73.683594 63.15625 74.738281 63.15625 76.316406 C 63.15625 77.894531 62.105469 78.949219 60.527344 78.949219 Z M 60.527344 78.949219 "/>
<path style=" stroke:none;fill-rule:nonzero;fill:rgb(25.098039%,25.098039%,25.098039%);fill-opacity:1;" d="M 50 68.421875 C 49.472656 68.421875 48.949219 68.421875 48.421875 67.894531 C 47.367188 66.84375 46.84375 65.261719 47.894531 64.210938 L 58.421875 48.421875 C 59.472656 47.367188 61.050781 46.84375 62.105469 47.894531 C 63.15625 48.949219 63.683594 50.527344 62.632812 51.578125 L 52.105469 67.367188 C 51.578125 67.894531 51.050781 68.421875 50 68.421875 Z M 50 68.421875 "/>
</g>
</svg>
