<?xml version="1.0" encoding="UTF-8"?>
<svg xmlns="http://www.w3.org/2000/svg" xmlns:xlink="http://www.w3.org/1999/xlink" width="100px" height="100px" viewBox="0 0 100 100" version="1.1">
<g id="surface1">
<path style=" stroke:none;fill-rule:nonzero;fill:rgb(25.098039%,25.098039%,25.098039%);fill-opacity:1;" d="M 26.316406 94.738281 L 21.050781 94.738281 L 21.050781 84.210938 L 26.316406 84.210938 Z M 26.316406 78.949219 L 21.050781 78.949219 L 21.050781 68.421875 L 26.316406 68.421875 Z M 26.316406 63.15625 L 21.050781 63.15625 L 21.050781 52.632812 L 26.316406 52.632812 Z M 26.316406 47.367188 L 21.050781 47.367188 L 21.050781 36.84375 L 26.316406 36.84375 Z M 26.316406 31.578125 L 21.050781 31.578125 L 21.050781 21.050781 L 26.316406 21.050781 Z M 26.316406 15.789062 L 21.050781 15.789062 L 21.050781 5.261719 L 26.316406 5.261719 Z M 26.316406 15.789062 "/>
<path style=" stroke:none;fill-rule:nonzero;fill:rgb(25.098039%,25.098039%,25.098039%);fill-opacity:1;" d="M 68.421875 5.261719 L 73.683594 5.261719 L 73.683594 18.421875 L 68.421875 18.421875 Z M 68.421875 5.261719 "/>
<path style=" stroke:none;fill-rule:nonzero;fill:rgb(25.098039%,25.098039%,25.098039%);fill-opacity:1;" d="M 68.421875 73.683594 L 73.683594 73.683594 L 73.683594 94.738281 L 68.421875 94.738281 Z M 68.421875 73.683594 "/>
<path style=" stroke:none;fill-rule:nonzero;fill:rgb(25.098039%,25.098039%,25.098039%);fill-opacity:1;" d="M 77.894531 56.84375 C 79.472656 54.210938 80.527344 52.105469 76.84375 50 C 78.949219 46.316406 80.527344 43.683594 81.050781 41.578125 C 84.738281 32.632812 78.949219 30 73.683594 26.316406 C 68.421875 23.15625 63.15625 20 56.84375 27.367188 C 55.789062 28.949219 53.683594 31.578125 51.578125 35.261719 C 47.894531 33.15625 46.84375 35.261719 45.261719 37.894531 L 48.949219 40 C 43.15625 49.472656 36.316406 62.105469 32.632812 68.421875 C 31.050781 71.050781 31.578125 74.738281 33.683594 76.84375 C 36.84375 80 40.527344 82.105469 41.050781 82.105469 C 41.050781 82.105469 44.738281 84.738281 48.949219 85.789062 C 52.105469 86.84375 55.261719 85.261719 56.84375 82.632812 C 60.527344 76.316406 68.421875 64.738281 73.683594 54.738281 Z M 46.84375 71.578125 C 42.632812 68.949219 40.527344 66.84375 39.472656 65.789062 C 38.949219 65.261719 38.949219 64.210938 39.472656 63.683594 L 43.15625 60 C 43.683594 59.472656 44.738281 59.472656 45.261719 60 C 47.894531 62.105469 54.738281 66.316406 57.894531 67.367188 C 58.421875 67.894531 58.949219 68.421875 58.421875 68.949219 L 56.84375 73.683594 C 56.84375 74.210938 55.789062 74.738281 55.261719 74.738281 C 54.210938 75.261719 51.578125 74.210938 46.84375 71.578125 Z M 70 50.527344 C 69.472656 51.050781 68.421875 51.050781 67.367188 50.527344 C 66.316406 49.472656 64.210938 48.421875 61.578125 46.84375 C 58.949219 45.261719 56.84375 44.210938 55.789062 43.683594 C 54.738281 43.15625 54.738281 42.105469 54.738281 41.578125 L 56.316406 36.316406 C 56.84375 35.261719 57.894531 34.738281 58.421875 34.738281 C 60.527344 35.261719 63.683594 36.316406 66.84375 38.421875 C 70 40 72.105469 42.632812 73.683594 44.210938 C 74.210938 45.261719 74.210938 46.316406 73.683594 46.84375 Z M 70 50.527344 "/>
</g>
</svg>
