<?xml version="1.0" encoding="UTF-8"?>
<svg xmlns="http://www.w3.org/2000/svg" xmlns:xlink="http://www.w3.org/1999/xlink" width="100px" height="100px" viewBox="0 0 100 100" version="1.1">
<g id="surface1">
<path style=" stroke:none;fill-rule:nonzero;fill:rgb(25.098039%,25.098039%,25.098039%);fill-opacity:1;" d="M 85.789062 84.210938 L 14.210938 84.210938 C 8.949219 84.210938 5.261719 80.527344 5.261719 75.261719 L 5.261719 24.738281 C 5.261719 19.472656 8.949219 15.789062 14.210938 15.789062 L 86.316406 15.789062 C 91.050781 15.789062 94.738281 19.472656 94.738281 24.738281 L 94.738281 75.789062 C 94.738281 80.527344 91.050781 84.210938 85.789062 84.210938 Z M 14.210938 21.050781 C 12.105469 21.050781 10.527344 22.632812 10.527344 24.738281 L 10.527344 75.789062 C 10.527344 77.367188 12.105469 78.949219 14.210938 78.949219 L 86.316406 78.949219 C 88.421875 78.949219 90 77.367188 90 75.261719 L 90 24.738281 C 89.472656 22.632812 87.894531 21.050781 85.789062 21.050781 Z M 14.210938 21.050781 "/>
<path style=" stroke:none;fill-rule:nonzero;fill:rgb(25.098039%,25.098039%,25.098039%);fill-opacity:1;" d="M 50 68.421875 C 40 68.421875 31.578125 60 31.578125 50 C 31.578125 40 40 31.578125 50 31.578125 C 60 31.578125 68.421875 40 68.421875 50 C 68.421875 60 60 68.421875 50 68.421875 Z M 50 36.84375 C 42.632812 36.84375 36.84375 42.632812 36.84375 50 C 36.84375 57.367188 42.632812 63.15625 50 63.15625 C 57.367188 63.15625 63.15625 57.367188 63.15625 50 C 63.15625 42.632812 57.367188 36.84375 50 36.84375 Z M 50 36.84375 "/>
<path style=" stroke:none;fill-rule:nonzero;fill:rgb(25.098039%,25.098039%,25.098039%);fill-opacity:1;" d="M 28.949219 42.105469 L 18.421875 42.105469 C 16.84375 42.105469 15.789062 41.050781 15.789062 39.472656 L 15.789062 28.949219 C 15.789062 27.367188 16.84375 26.316406 18.421875 26.316406 L 28.949219 26.316406 C 30.527344 26.316406 31.578125 27.367188 31.578125 28.949219 L 31.578125 39.472656 C 31.578125 41.050781 30.527344 42.105469 28.949219 42.105469 Z M 21.050781 36.84375 L 26.316406 36.84375 L 26.316406 31.578125 L 21.050781 31.578125 Z M 21.050781 36.84375 "/>
</g>
</svg>
