<?xml version="1.0" encoding="UTF-8"?>
<svg xmlns="http://www.w3.org/2000/svg" xmlns:xlink="http://www.w3.org/1999/xlink" width="100px" height="100px" viewBox="0 0 100 100" version="1.1">
<g id="surface1">
<path style=" stroke:none;fill-rule:nonzero;fill:rgb(25.098039%,25.098039%,25.098039%);fill-opacity:1;" d="M 36.316406 31.578125 L 21.578125 31.578125 C 15.261719 31.578125 10.527344 26.84375 10.527344 20.527344 L 10.527344 16.316406 C 10.527344 10 15.261719 5.261719 21.578125 5.261719 L 36.316406 5.261719 C 42.632812 5.261719 47.367188 10 47.367188 16.316406 L 47.367188 20.527344 C 47.367188 26.84375 42.632812 31.578125 36.316406 31.578125 Z M 21.578125 10.527344 C 18.421875 10.527344 15.789062 13.15625 15.789062 16.316406 L 15.789062 20.527344 C 15.789062 23.683594 18.421875 26.316406 21.578125 26.316406 L 36.316406 26.316406 C 39.472656 26.316406 42.105469 23.683594 42.105469 20.527344 L 42.105469 16.316406 C 42.105469 13.15625 39.472656 10.527344 36.316406 10.527344 Z M 21.578125 10.527344 "/>
<path style=" stroke:none;fill-rule:nonzero;fill:rgb(25.098039%,25.098039%,25.098039%);fill-opacity:1;" d="M 78.421875 31.578125 L 63.683594 31.578125 C 57.367188 31.578125 52.632812 26.84375 52.632812 20.527344 L 52.632812 16.316406 C 52.632812 10 57.367188 5.261719 63.683594 5.261719 L 78.421875 5.261719 C 84.738281 5.261719 89.472656 10 89.472656 16.316406 L 89.472656 20.527344 C 89.472656 26.84375 84.738281 31.578125 78.421875 31.578125 Z M 63.683594 10.527344 C 60.527344 10.527344 57.894531 13.15625 57.894531 16.316406 L 57.894531 20.527344 C 57.894531 23.683594 60.527344 26.316406 63.683594 26.316406 L 78.421875 26.316406 C 81.578125 26.316406 84.210938 23.683594 84.210938 20.527344 L 84.210938 16.316406 C 84.210938 13.15625 81.578125 10.527344 78.421875 10.527344 Z M 63.683594 10.527344 "/>
<path style=" stroke:none;fill-rule:nonzero;fill:rgb(25.098039%,25.098039%,25.098039%);fill-opacity:1;" d="M 36.316406 63.15625 L 21.578125 63.15625 C 15.261719 63.15625 10.527344 58.421875 10.527344 52.105469 L 10.527344 47.894531 C 10.527344 41.578125 15.261719 36.84375 21.578125 36.84375 L 36.316406 36.84375 C 42.632812 36.84375 47.367188 41.578125 47.367188 47.894531 L 47.367188 52.105469 C 47.367188 58.421875 42.632812 63.15625 36.316406 63.15625 Z M 21.578125 42.105469 C 18.421875 42.105469 15.789062 44.738281 15.789062 47.894531 L 15.789062 52.105469 C 15.789062 55.261719 18.421875 57.894531 21.578125 57.894531 L 36.316406 57.894531 C 39.472656 57.894531 42.105469 55.261719 42.105469 52.105469 L 42.105469 47.894531 C 42.105469 44.738281 39.472656 42.105469 36.316406 42.105469 Z M 21.578125 42.105469 "/>
<path style=" stroke:none;fill-rule:nonzero;fill:rgb(25.098039%,25.098039%,25.098039%);fill-opacity:1;" d="M 78.421875 63.15625 L 63.683594 63.15625 C 57.894531 63.15625 52.632812 58.421875 52.632812 52.105469 L 52.632812 47.894531 C 52.632812 41.578125 57.367188 36.84375 63.683594 36.84375 L 78.421875 36.84375 C 84.738281 36.84375 89.472656 41.578125 89.472656 47.894531 L 89.472656 52.105469 C 89.472656 58.421875 84.738281 63.15625 78.421875 63.15625 Z M 63.683594 42.105469 C 60.527344 42.105469 57.894531 44.738281 57.894531 47.894531 L 57.894531 52.105469 C 57.894531 55.261719 60.527344 57.894531 63.683594 57.894531 L 78.421875 57.894531 C 81.578125 57.894531 84.210938 55.261719 84.210938 52.105469 L 84.210938 47.894531 C 84.210938 44.738281 81.578125 42.105469 78.421875 42.105469 Z M 63.683594 42.105469 "/>
<path style=" stroke:none;fill-rule:nonzero;fill:rgb(25.098039%,25.098039%,25.098039%);fill-opacity:1;" d="M 36.316406 94.738281 L 21.578125 94.738281 C 15.261719 94.738281 10.527344 90 10.527344 83.683594 L 10.527344 79.472656 C 10.527344 73.15625 15.261719 68.421875 21.578125 68.421875 L 36.316406 68.421875 C 42.632812 68.421875 47.367188 73.15625 47.367188 79.472656 L 47.367188 83.683594 C 47.367188 90 42.632812 94.738281 36.316406 94.738281 Z M 21.578125 73.683594 C 18.421875 73.683594 15.789062 76.316406 15.789062 79.472656 L 15.789062 83.683594 C 15.789062 86.84375 18.421875 89.472656 21.578125 89.472656 L 36.316406 89.472656 C 39.472656 89.472656 42.105469 86.84375 42.105469 83.683594 L 42.105469 79.472656 C 42.105469 76.316406 39.472656 73.683594 36.316406 73.683594 Z M 21.578125 73.683594 "/>
<path style=" stroke:none;fill-rule:nonzero;fill:rgb(25.098039%,25.098039%,25.098039%);fill-opacity:1;" d="M 78.421875 94.738281 L 63.683594 94.738281 C 57.894531 94.738281 52.632812 90 52.632812 83.683594 L 52.632812 79.472656 C 52.632812 73.683594 57.367188 68.421875 63.683594 68.421875 L 78.421875 68.421875 C 84.210938 68.421875 89.472656 73.15625 89.472656 79.472656 L 89.472656 83.683594 C 89.472656 90 84.738281 94.738281 78.421875 94.738281 Z M 63.683594 73.683594 C 60.527344 73.683594 57.894531 76.316406 57.894531 79.472656 L 57.894531 83.683594 C 57.894531 86.84375 60.527344 89.472656 63.683594 89.472656 L 78.421875 89.472656 C 81.578125 89.472656 84.210938 86.84375 84.210938 83.683594 L 84.210938 79.472656 C 84.210938 76.316406 81.578125 73.683594 78.421875 73.683594 Z M 63.683594 73.683594 "/>
</g>
</svg>
