<?xml version="1.0" encoding="UTF-8"?>
<svg xmlns="http://www.w3.org/2000/svg" xmlns:xlink="http://www.w3.org/1999/xlink" width="100px" height="100px" viewBox="0 0 100 100" version="1.1">
<g id="surface1">
<path style=" stroke:none;fill-rule:nonzero;fill:rgb(25.098039%,25.098039%,25.098039%);fill-opacity:1;" d="M 50.527344 97.367188 C 30 97.367188 13.15625 80.527344 13.15625 60 C 13.15625 48.949219 17.894531 38.421875 26.316406 31.578125 C 27.367188 30.527344 28.949219 30.527344 30 31.578125 C 31.050781 32.632812 31.050781 34.210938 29.472656 35.261719 C 22.105469 41.578125 17.894531 50.527344 17.894531 60 C 17.894531 77.894531 32.105469 92.105469 50 92.105469 C 67.894531 92.105469 82.105469 77.894531 82.105469 60 C 82.105469 50.527344 77.894531 41.578125 70.527344 35.261719 C 69.472656 34.210938 69.472656 32.632812 70 31.578125 C 72.105469 30.527344 73.683594 30.527344 74.738281 31.578125 C 83.15625 38.949219 87.894531 48.949219 87.894531 60 C 87.894531 80.527344 71.050781 97.367188 50.527344 97.367188 Z M 50.527344 97.367188 "/>
<path style=" stroke:none;fill-rule:nonzero;fill:rgb(25.098039%,25.098039%,25.098039%);fill-opacity:1;" d="M 38.421875 47.367188 C 37.894531 47.367188 37.894531 47.367188 37.367188 47.367188 C 35.789062 46.84375 35.261719 45.261719 35.789062 43.683594 C 35.789062 43.683594 38.949219 35.789062 35.789062 28.421875 C 32.105469 18.949219 35.789062 10 35.789062 9.472656 C 36.316406 7.894531 37.894531 7.367188 38.949219 7.894531 C 40 8.421875 41.578125 10.527344 41.050781 11.578125 C 41.050781 11.578125 37.894531 19.472656 41.050781 26.84375 C 44.738281 36.316406 41.050781 45.261719 41.050781 45.789062 C 40.527344 46.84375 39.472656 47.367188 38.421875 47.367188 Z M 38.421875 47.367188 "/>
<path style=" stroke:none;fill-rule:nonzero;fill:rgb(25.098039%,25.098039%,25.098039%);fill-opacity:1;" d="M 49.472656 47.367188 C 48.949219 47.367188 48.949219 47.367188 48.421875 47.367188 C 46.84375 46.84375 46.316406 45.261719 46.84375 43.683594 C 46.84375 43.683594 50 35.789062 46.84375 28.421875 C 43.15625 18.949219 46.84375 10 46.84375 9.472656 C 47.367188 8.421875 48.949219 7.894531 50.527344 8.421875 C 51.578125 8.949219 52.105469 10.527344 51.578125 11.578125 C 51.578125 11.578125 48.421875 19.472656 51.578125 26.84375 C 55.261719 36.316406 51.578125 45.261719 51.578125 45.789062 C 51.578125 46.84375 50.527344 47.367188 49.472656 47.367188 Z M 49.472656 47.367188 "/>
<path style=" stroke:none;fill-rule:nonzero;fill:rgb(25.098039%,25.098039%,25.098039%);fill-opacity:1;" d="M 60.527344 47.367188 C 60 47.367188 60 47.367188 59.472656 47.367188 C 57.894531 46.84375 57.367188 45.261719 57.894531 43.683594 C 57.894531 43.683594 61.050781 35.789062 57.894531 28.421875 C 54.210938 18.949219 57.894531 10 57.894531 9.472656 C 58.421875 7.894531 60 7.367188 61.050781 7.894531 C 62.632812 8.949219 63.15625 10.527344 62.632812 11.578125 C 62.632812 11.578125 59.472656 19.472656 62.632812 26.84375 C 66.316406 36.316406 62.632812 45.261719 62.632812 45.789062 C 62.632812 46.84375 61.578125 47.367188 60.527344 47.367188 Z M 60.527344 47.367188 "/>
<path style=" stroke:none;fill-rule:nonzero;fill:rgb(25.098039%,25.098039%,25.098039%);fill-opacity:1;" d="M 16.84375 69.472656 L 15.789062 64.210938 L 32.105469 60.527344 C 45.261719 57.367188 58.421875 57.367188 71.578125 61.050781 L 85.261719 64.738281 L 84.210938 70 L 70.527344 66.316406 C 58.421875 63.15625 45.789062 63.15625 33.683594 65.789062 Z M 16.84375 69.472656 "/>
<path style=" stroke:none;fill-rule:nonzero;fill:rgb(25.098039%,25.098039%,25.098039%);fill-opacity:1;" d="M 47.367188 63.15625 L 52.632812 63.15625 L 52.632812 94.738281 L 47.367188 94.738281 Z M 47.367188 63.15625 "/>
</g>
</svg>
