<?xml version="1.0" encoding="UTF-8"?>
<svg xmlns="http://www.w3.org/2000/svg" xmlns:xlink="http://www.w3.org/1999/xlink" width="100px" height="100px" viewBox="0 0 100 100" version="1.1">
<g id="surface1">
<path style=" stroke:none;fill-rule:nonzero;fill:rgb(25.098039%,25.098039%,25.098039%);fill-opacity:1;" d="M 89.472656 57.894531 L 84.210938 57.894531 L 84.210938 29.472656 C 84.210938 27.894531 82.632812 26.316406 81.050781 26.316406 L 18.949219 26.316406 C 17.367188 26.316406 15.789062 27.894531 15.789062 29.472656 L 15.789062 57.894531 L 10.527344 57.894531 L 10.527344 29.472656 C 10.527344 24.738281 14.210938 21.050781 18.949219 21.050781 L 81.050781 21.050781 C 85.789062 21.050781 89.472656 24.738281 89.472656 29.472656 Z M 89.472656 57.894531 "/>
<path style=" stroke:none;fill-rule:nonzero;fill:rgb(25.098039%,25.098039%,25.098039%);fill-opacity:1;" d="M 21.050781 47.367188 L 15.789062 47.367188 L 15.789062 42.105469 L 21.050781 42.105469 L 21.050781 36.84375 L 15.789062 36.84375 L 15.789062 31.578125 L 21.050781 31.578125 C 24.210938 31.578125 26.316406 34.210938 26.316406 36.84375 L 26.316406 42.105469 C 26.316406 44.738281 23.683594 47.367188 21.050781 47.367188 Z M 21.050781 47.367188 "/>
<path style=" stroke:none;fill-rule:nonzero;fill:rgb(25.098039%,25.098039%,25.098039%);fill-opacity:1;" d="M 84.210938 47.367188 L 78.949219 47.367188 C 75.789062 47.367188 73.683594 44.738281 73.683594 42.105469 L 73.683594 36.84375 C 73.683594 33.683594 76.316406 31.578125 78.949219 31.578125 L 84.210938 31.578125 L 84.210938 36.84375 L 78.949219 36.84375 L 78.949219 42.105469 L 84.210938 42.105469 Z M 84.210938 47.367188 "/>
<path style=" stroke:none;fill-rule:nonzero;fill:rgb(25.098039%,25.098039%,25.098039%);fill-opacity:1;" d="M 86.316406 68.421875 L 13.683594 68.421875 C 8.949219 68.421875 5.261719 64.738281 5.261719 60 L 5.261719 52.632812 L 94.738281 52.632812 L 94.738281 60 C 94.738281 64.738281 91.050781 68.421875 86.316406 68.421875 Z M 10.527344 57.894531 L 10.527344 60 C 10.527344 61.578125 12.105469 63.15625 13.683594 63.15625 L 86.316406 63.15625 C 87.894531 63.15625 89.472656 61.578125 89.472656 60 L 89.472656 57.894531 Z M 10.527344 57.894531 "/>
<path style=" stroke:none;fill-rule:nonzero;fill:rgb(25.098039%,25.098039%,25.098039%);fill-opacity:1;" d="M 30 84.210938 L 22.632812 84.210938 C 18.949219 84.210938 15.789062 81.050781 15.789062 77.367188 L 15.789062 68.421875 L 21.050781 68.421875 L 21.050781 77.367188 C 21.050781 78.421875 21.578125 78.949219 22.632812 78.949219 L 30 78.949219 C 31.050781 78.949219 31.578125 78.421875 31.578125 77.367188 L 31.578125 68.421875 L 36.84375 68.421875 L 36.84375 77.367188 C 36.84375 81.050781 33.683594 84.210938 30 84.210938 Z M 30 84.210938 "/>
<path style=" stroke:none;fill-rule:nonzero;fill:rgb(25.098039%,25.098039%,25.098039%);fill-opacity:1;" d="M 77.367188 84.210938 L 70 84.210938 C 66.316406 84.210938 63.15625 81.050781 63.15625 77.367188 L 63.15625 68.421875 L 68.421875 68.421875 L 68.421875 77.367188 C 68.421875 78.421875 68.949219 78.949219 70 78.949219 L 77.367188 78.949219 C 78.421875 78.949219 78.949219 78.421875 78.949219 77.367188 L 78.949219 68.421875 L 84.210938 68.421875 L 84.210938 77.367188 C 84.210938 81.050781 81.050781 84.210938 77.367188 84.210938 Z M 77.367188 84.210938 "/>
<path style=" stroke:none;fill-rule:nonzero;fill:rgb(25.098039%,25.098039%,25.098039%);fill-opacity:1;" d="M 63.683594 56.84375 L 56.84375 47.367188 L 43.15625 47.367188 L 36.316406 56.84375 L 32.105469 53.683594 L 41.050781 42.105469 L 58.949219 42.105469 L 67.894531 53.683594 Z M 63.683594 56.84375 "/>
<path style=" stroke:none;fill-rule:nonzero;fill:rgb(25.098039%,25.098039%,25.098039%);fill-opacity:1;" d="M 63.15625 36.84375 L 36.84375 36.84375 C 35.261719 36.84375 34.210938 35.789062 34.210938 34.210938 C 34.210938 32.632812 35.261719 31.578125 36.84375 31.578125 L 63.15625 31.578125 C 64.738281 31.578125 65.789062 32.632812 65.789062 34.210938 C 65.789062 35.789062 64.738281 36.84375 63.15625 36.84375 Z M 63.15625 36.84375 "/>
</g>
</svg>
