<?xml version="1.0" encoding="UTF-8"?>
<svg xmlns="http://www.w3.org/2000/svg" xmlns:xlink="http://www.w3.org/1999/xlink" width="100px" height="100px" viewBox="0 0 100 100" version="1.1">
<g id="surface1">
<path style=" stroke:none;fill-rule:nonzero;fill:rgb(25.098039%,25.098039%,25.098039%);fill-opacity:1;" d="M 74.738281 73.15625 C 74.210938 73.15625 73.15625 73.15625 72.632812 72.632812 C 71.578125 71.578125 71.578125 70 72.632812 68.949219 C 77.367188 64.210938 80 57.894531 80 51.578125 C 80 45.261719 77.367188 38.949219 72.632812 34.210938 C 71.578125 33.15625 71.578125 31.578125 72.632812 30.527344 C 73.683594 29.472656 75.261719 29.472656 76.316406 30.527344 C 82.105469 36.316406 85.261719 43.683594 85.261719 51.578125 C 85.261719 59.472656 82.105469 66.84375 76.316406 72.632812 C 75.789062 73.15625 75.261719 73.15625 74.738281 73.15625 Z M 74.738281 73.15625 "/>
<path style=" stroke:none;fill-rule:nonzero;fill:rgb(25.098039%,25.098039%,25.098039%);fill-opacity:1;" d="M 82.105469 81.050781 C 81.578125 81.050781 80.527344 81.050781 80 80.527344 C 78.949219 79.472656 78.949219 77.894531 80 76.84375 C 93.683594 63.15625 93.683594 40.527344 80 26.316406 C 78.949219 25.261719 78.949219 23.683594 80 22.632812 C 81.050781 21.578125 82.632812 21.578125 83.683594 22.632812 C 99.472656 38.421875 99.472656 64.738281 83.683594 80.527344 C 83.683594 80.527344 83.15625 81.050781 82.105469 81.050781 Z M 82.105469 81.050781 "/>
<path style=" stroke:none;fill-rule:nonzero;fill:rgb(25.098039%,25.098039%,25.098039%);fill-opacity:1;" d="M 43.15625 89.472656 L 28.421875 89.472656 C 17.894531 89.472656 9.472656 81.050781 9.472656 70.527344 L 9.472656 29.472656 C 9.472656 18.949219 17.894531 10.527344 28.421875 10.527344 L 43.15625 10.527344 C 53.683594 10.527344 62.105469 18.949219 62.105469 29.472656 L 62.105469 70.527344 C 62.105469 81.050781 53.683594 89.472656 43.15625 89.472656 Z M 28.421875 15.789062 C 21.050781 15.789062 14.738281 22.105469 14.738281 29.472656 L 14.738281 70.527344 C 14.738281 77.894531 21.050781 84.210938 28.421875 84.210938 L 43.15625 84.210938 C 50.527344 84.210938 56.84375 77.894531 56.84375 70.527344 L 56.84375 29.472656 C 56.84375 22.105469 51.050781 15.789062 43.15625 15.789062 Z M 28.421875 15.789062 "/>
<path style=" stroke:none;fill-rule:nonzero;fill:rgb(25.098039%,25.098039%,25.098039%);fill-opacity:1;" d="M 35.789062 44.210938 C 30 44.210938 25.789062 39.472656 25.789062 34.210938 C 25.789062 28.949219 30.527344 24.210938 35.789062 24.210938 C 41.050781 24.210938 45.789062 28.949219 45.789062 34.210938 C 45.789062 39.472656 41.578125 44.210938 35.789062 44.210938 Z M 35.789062 29.472656 C 33.15625 29.472656 31.050781 31.578125 31.050781 34.210938 C 31.050781 36.84375 33.15625 38.949219 35.789062 38.949219 C 38.421875 38.949219 40.527344 36.84375 40.527344 34.210938 C 40.527344 31.578125 38.421875 29.472656 35.789062 29.472656 Z M 35.789062 29.472656 "/>
<path style=" stroke:none;fill-rule:nonzero;fill:rgb(25.098039%,25.098039%,25.098039%);fill-opacity:1;" d="M 35.789062 78.949219 C 26.84375 78.949219 20 72.105469 20 63.15625 C 20 54.210938 26.84375 47.367188 35.789062 47.367188 C 44.738281 47.367188 51.578125 54.210938 51.578125 63.15625 C 51.578125 72.105469 44.738281 78.949219 35.789062 78.949219 Z M 35.789062 52.632812 C 30 52.632812 25.261719 57.367188 25.261719 63.15625 C 25.261719 68.949219 30 73.683594 35.789062 73.683594 C 41.578125 73.683594 46.316406 68.949219 46.316406 63.15625 C 46.316406 57.367188 41.578125 52.632812 35.789062 52.632812 Z M 35.789062 52.632812 "/>
</g>
</svg>
