<svg xmlns="http://www.w3.org/2000/svg" width="17.761" height="17.761" viewBox="0 0 17.761 17.761">
  <path id="icons8-print" d="M5.328,2V6.807H3.109A1.115,1.115,0,0,0,2,7.917v6.656a1.115,1.115,0,0,0,1.109,1.109H5.328v3.328H15.683V15.683H17.9a1.115,1.115,0,0,0,1.109-1.109V7.917A1.115,1.115,0,0,0,17.9,6.807H15.683V2Zm.74.74h8.875V6.807H6.068ZM3.109,7.547H5.636a.37.37,0,0,0,.121,0h9.494a.37.37,0,0,0,.121,0H17.9a.364.364,0,0,1,.37.37v6.656a.364.364,0,0,1-.37.37H15.683V11.615H5.328v3.328H3.109a.364.364,0,0,1-.37-.37V7.917A.364.364,0,0,1,3.109,7.547ZM16.422,8.656a.74.74,0,1,0,.74.74A.74.74,0,0,0,16.422,8.656Zm-10.354,3.7h8.875v2.9a.37.37,0,0,0,0,.121v2.9H6.068v-2.9a.37.37,0,0,0,0-.121Z" transform="translate(-1.625 -1.625)" fill="#333" stroke="#333" stroke-width="0.75"/>
</svg>
