<?xml version="1.0" encoding="UTF-8"?>
<svg xmlns="http://www.w3.org/2000/svg" xmlns:xlink="http://www.w3.org/1999/xlink" width="100px" height="100px" viewBox="0 0 100 100" version="1.1">
<g id="surface1">
<path style=" stroke:none;fill-rule:nonzero;fill:rgb(25.098039%,25.098039%,25.098039%);fill-opacity:1;" d="M 74.210938 79.472656 L 23.15625 79.472656 L 23.15625 33.683594 C 23.15625 19.472656 34.738281 8.421875 48.949219 8.421875 C 63.15625 8.421875 74.738281 20 74.738281 33.683594 L 74.738281 79.472656 Z M 28.421875 74.210938 L 68.949219 74.210938 L 68.949219 33.683594 C 68.949219 22.632812 60 13.683594 48.421875 13.683594 C 36.84375 13.683594 28.421875 22.632812 28.421875 33.683594 Z M 28.421875 74.210938 "/>
<path style=" stroke:none;fill-rule:nonzero;fill:rgb(25.098039%,25.098039%,25.098039%);fill-opacity:1;" d="M 18.949219 69.472656 L 17.367188 69.472656 C 12.105469 69.472656 7.894531 65.261719 7.894531 60 L 7.894531 33.683594 L 89.472656 33.683594 L 89.472656 58.421875 C 89.472656 63.683594 84.738281 67.894531 78.949219 67.894531 C 73.15625 67.894531 68.949219 63.683594 68.949219 58.421875 L 74.210938 58.421875 C 74.210938 60.527344 76.316406 62.632812 78.949219 62.632812 C 81.578125 62.632812 84.210938 61.050781 84.210938 58.421875 L 84.210938 38.949219 L 13.15625 38.949219 L 13.15625 60 C 13.15625 62.105469 14.738281 64.210938 17.367188 64.210938 L 19.472656 64.210938 C 21.578125 64.210938 23.683594 62.632812 23.683594 60 L 28.949219 60 C 28.421875 65.261719 24.210938 69.472656 18.949219 69.472656 Z M 18.949219 69.472656 "/>
<path style=" stroke:none;fill-rule:nonzero;fill:rgb(25.098039%,25.098039%,25.098039%);fill-opacity:1;" d="M 35.789062 95.261719 C 31.578125 95.261719 27.894531 91.578125 27.894531 87.367188 L 27.894531 74.210938 L 33.15625 74.210938 L 33.15625 87.367188 C 33.15625 88.949219 34.210938 90 35.789062 90 C 37.367188 90 38.421875 88.949219 38.421875 87.367188 L 38.421875 74.210938 L 43.683594 74.210938 L 43.683594 87.367188 C 43.683594 92.105469 40 95.261719 35.789062 95.261719 Z M 35.789062 95.261719 "/>
<path style=" stroke:none;fill-rule:nonzero;fill:rgb(25.098039%,25.098039%,25.098039%);fill-opacity:1;" d="M 61.578125 95.261719 C 57.367188 95.261719 53.683594 91.578125 53.683594 87.367188 L 53.683594 74.210938 L 58.949219 74.210938 L 58.949219 87.367188 C 58.949219 88.949219 60 90 61.578125 90 C 63.15625 90 64.210938 88.949219 64.210938 87.367188 L 64.210938 74.210938 L 69.472656 74.210938 L 69.472656 87.367188 C 68.949219 92.105469 65.789062 95.261719 61.578125 95.261719 Z M 61.578125 95.261719 "/>
<path style=" stroke:none;fill-rule:nonzero;fill:rgb(25.098039%,25.098039%,25.098039%);fill-opacity:1;" d="M 25.398438 7.847656 L 29.117188 4.125 L 37.679688 12.683594 L 33.957031 16.40625 Z M 25.398438 7.847656 "/>
<path style=" stroke:none;fill-rule:nonzero;fill:rgb(25.098039%,25.098039%,25.098039%);fill-opacity:1;" d="M 59.078125 13.050781 L 67.636719 4.488281 L 71.359375 8.210938 L 62.800781 16.769531 Z M 59.078125 13.050781 "/>
</g>
</svg>
