<?xml version="1.0" encoding="UTF-8"?>
<svg xmlns="http://www.w3.org/2000/svg" xmlns:xlink="http://www.w3.org/1999/xlink" width="100px" height="100px" viewBox="0 0 100 100" version="1.1">
<g id="surface1">
<path style=" stroke:none;fill-rule:nonzero;fill:rgb(25.098039%,25.098039%,25.098039%);fill-opacity:1;" d="M 50 73.683594 C 36.84375 73.683594 26.316406 63.15625 26.316406 50 C 26.316406 42.105469 30.527344 34.738281 36.84375 30 C 37.894531 28.949219 39.472656 29.472656 40.527344 30.527344 C 41.578125 31.578125 41.050781 33.15625 40 34.210938 C 34.738281 37.894531 31.578125 43.683594 31.578125 50 C 31.578125 60 40 68.421875 50 68.421875 C 60 68.421875 68.421875 60 68.421875 50 C 68.421875 44.210938 65.261719 38.421875 60.527344 34.738281 C 59.472656 33.683594 58.949219 32.105469 60 31.050781 C 61.050781 30 62.632812 29.472656 63.683594 30.527344 C 70 35.261719 73.683594 42.105469 73.683594 50 C 73.683594 63.15625 63.15625 73.683594 50 73.683594 Z M 50 73.683594 "/>
<path style=" stroke:none;fill-rule:nonzero;fill:rgb(25.098039%,25.098039%,25.098039%);fill-opacity:1;" d="M 50 94.738281 C 25.261719 94.738281 5.261719 74.738281 5.261719 50 C 5.261719 25.261719 25.261719 5.261719 50 5.261719 C 74.738281 5.261719 94.738281 25.261719 94.738281 50 C 94.738281 74.738281 74.738281 94.738281 50 94.738281 Z M 50 10.527344 C 28.421875 10.527344 10.527344 28.421875 10.527344 50 C 10.527344 71.578125 28.421875 89.472656 50 89.472656 C 71.578125 89.472656 89.472656 71.578125 89.472656 50 C 89.472656 28.421875 71.578125 10.527344 50 10.527344 Z M 50 10.527344 "/>
<path style=" stroke:none;fill-rule:nonzero;fill:rgb(25.098039%,25.098039%,25.098039%);fill-opacity:1;" d="M 50 52.632812 C 48.421875 52.632812 47.367188 51.578125 47.367188 50 L 47.367188 23.683594 C 47.367188 22.105469 48.421875 21.050781 50 21.050781 C 51.578125 21.050781 52.632812 22.105469 52.632812 23.683594 L 52.632812 50 C 52.632812 51.578125 51.578125 52.632812 50 52.632812 Z M 50 52.632812 "/>
</g>
</svg>
