<?xml version="1.0" encoding="UTF-8"?>
<svg xmlns="http://www.w3.org/2000/svg" xmlns:xlink="http://www.w3.org/1999/xlink" width="100px" height="100px" viewBox="0 0 100 100" version="1.1">
<g id="surface1">
<path style=" stroke:none;fill-rule:nonzero;fill:rgb(25.098039%,25.098039%,25.098039%);fill-opacity:1;" d="M 81.050781 86.84375 L 77.367188 83.15625 C 85.261719 75.261719 89.472656 65.261719 89.472656 54.738281 C 89.472656 32.632812 71.050781 14.210938 48.949219 14.210938 C 26.84375 14.210938 8.421875 32.632812 8.421875 54.738281 C 8.421875 65.789062 12.632812 75.789062 20.527344 83.15625 L 15.789062 86.84375 C 7.367188 78.421875 2.632812 66.84375 2.632812 54.210938 C 2.632812 28.949219 23.15625 8.421875 48.421875 8.421875 C 73.683594 8.421875 94.210938 28.949219 94.210938 54.210938 C 94.210938 66.84375 89.472656 77.894531 81.050781 86.84375 Z M 81.050781 86.84375 "/>
<path style=" stroke:none;fill-rule:nonzero;fill:rgb(25.098039%,25.098039%,25.098039%);fill-opacity:1;" d="M 63.683594 88.421875 L 36.316406 88.421875 C 34.738281 88.421875 33.683594 87.367188 33.683594 85.789062 C 33.683594 84.210938 34.738281 83.15625 36.316406 83.15625 L 64.210938 83.15625 C 65.789062 83.15625 66.84375 84.210938 66.84375 85.789062 C 66.84375 87.367188 65.261719 88.421875 63.683594 88.421875 Z M 63.683594 88.421875 "/>
<path style=" stroke:none;fill-rule:nonzero;fill:rgb(25.098039%,25.098039%,25.098039%);fill-opacity:1;" d="M 50 73.683594 C 49.472656 73.683594 48.949219 73.683594 48.949219 73.15625 C 47.894531 72.632812 47.367188 71.050781 47.894531 69.472656 L 68.949219 27.367188 C 69.472656 26.316406 71.050781 25.789062 72.632812 26.316406 C 73.683594 26.84375 74.210938 28.421875 73.683594 30 L 52.632812 72.105469 C 52.105469 73.15625 51.050781 73.683594 50 73.683594 Z M 50 73.683594 "/>
<path style=" stroke:none;fill-rule:nonzero;fill:rgb(25.098039%,25.098039%,25.098039%);fill-opacity:1;" d="M 51.578125 32.105469 C 50 32.105469 48.949219 31.050781 48.949219 29.472656 L 48.949219 20 C 48.949219 18.421875 50 17.367188 51.578125 17.367188 C 53.15625 17.367188 54.210938 18.421875 54.210938 20 L 54.210938 28.949219 C 54.210938 30.527344 53.15625 32.105469 51.578125 32.105469 Z M 51.578125 32.105469 "/>
<path style=" stroke:none;fill-rule:nonzero;fill:rgb(25.098039%,25.098039%,25.098039%);fill-opacity:1;" d="M 22.632812 61.050781 L 13.683594 61.050781 C 12.105469 61.050781 11.050781 60 11.050781 58.421875 C 11.050781 56.84375 12.105469 55.789062 13.683594 55.789062 L 22.632812 55.789062 C 24.210938 55.789062 25.261719 56.84375 25.261719 58.421875 C 25.261719 60 24.210938 61.050781 22.632812 61.050781 Z M 22.632812 61.050781 "/>
<path style=" stroke:none;fill-rule:nonzero;fill:rgb(25.098039%,25.098039%,25.098039%);fill-opacity:1;" d="M 80.527344 61.050781 L 71.578125 61.050781 C 70 61.050781 68.949219 60 68.949219 58.421875 C 68.949219 56.84375 70 55.789062 71.578125 55.789062 L 80.527344 55.789062 C 82.105469 55.789062 83.15625 56.84375 83.15625 58.421875 C 83.15625 60 82.105469 61.050781 80.527344 61.050781 Z M 80.527344 61.050781 "/>
<path style=" stroke:none;fill-rule:nonzero;fill:rgb(25.098039%,25.098039%,25.098039%);fill-opacity:1;" d="M 27.894531 36.84375 C 27.367188 36.84375 26.84375 36.84375 26.316406 36.316406 L 21.050781 31.578125 C 20 30.527344 20 28.421875 21.050781 27.367188 C 22.105469 26.316406 23.683594 26.316406 24.738281 27.367188 L 29.472656 32.105469 C 30.527344 33.15625 30.527344 34.738281 29.472656 35.789062 C 29.472656 36.84375 28.421875 36.84375 27.894531 36.84375 Z M 27.894531 36.84375 "/>
</g>
</svg>
