<svg xmlns="http://www.w3.org/2000/svg" width="30.857" height="30.857" viewBox="0 0 30.857 30.857">
  <defs>
    <style>
      .cls-1 {
        fill: #fff;
      }
    </style>
  </defs>
  <path id="_" data-name="ï¥" class="cls-1" d="M16.739,21.357a.692.692,0,0,0-.2-.462l-2.29-2.29a.632.632,0,0,0-.924,0l-6.67,6.67L3.761,22.382a1.278,1.278,0,0,0-.9-.382,1.3,1.3,0,0,0-1.286,1.286v9a1.3,1.3,0,0,0,1.286,1.286h9a1.3,1.3,0,0,0,1.286-1.286,1.278,1.278,0,0,0-.382-.9L9.868,28.489l6.67-6.67A.692.692,0,0,0,16.739,21.357ZM32.429,4a1.3,1.3,0,0,0-1.286-1.286h-9A1.3,1.3,0,0,0,20.857,4a1.278,1.278,0,0,0,.382.9L24.132,7.8l-6.67,6.67a.632.632,0,0,0,0,.924l2.29,2.29a.632.632,0,0,0,.924,0l6.67-6.67L30.239,13.9a1.278,1.278,0,0,0,.9.382A1.3,1.3,0,0,0,32.429,13Z" transform="translate(-1.571 -2.714)"/>
</svg>
