<?xml version="1.0" encoding="UTF-8"?>
<svg xmlns="http://www.w3.org/2000/svg" xmlns:xlink="http://www.w3.org/1999/xlink" width="100px" height="100px" viewBox="0 0 100 100" version="1.1">
<g id="surface1">
<path style=" stroke:none;fill-rule:nonzero;fill:rgb(25.098039%,25.098039%,25.098039%);fill-opacity:1;" d="M 86.84375 78.949219 L 13.15625 78.949219 C 11.578125 78.949219 10.527344 77.894531 10.527344 76.316406 C 10.527344 74.738281 11.578125 73.683594 13.15625 73.683594 L 84.210938 73.683594 L 84.210938 63.15625 L 48.949219 63.15625 C 47.894531 63.15625 47.367188 62.632812 46.84375 62.105469 L 26.316406 31.578125 L 13.15625 31.578125 C 11.578125 31.578125 10.527344 30.527344 10.527344 28.949219 C 10.527344 27.367188 11.578125 26.316406 13.15625 26.316406 L 27.894531 26.316406 C 28.949219 26.316406 29.472656 26.84375 30 27.367188 L 50 57.894531 L 86.84375 57.894531 C 88.421875 57.894531 89.472656 58.949219 89.472656 60.527344 L 89.472656 76.316406 C 89.472656 77.894531 88.421875 78.949219 86.84375 78.949219 Z M 86.84375 78.949219 "/>
<path style=" stroke:none;fill-rule:nonzero;fill:rgb(25.098039%,25.098039%,25.098039%);fill-opacity:1;" d="M 63.15625 47.367188 L 68.421875 47.367188 L 68.421875 57.894531 L 63.15625 57.894531 Z M 63.15625 47.367188 "/>
<path style=" stroke:none;fill-rule:nonzero;fill:rgb(25.098039%,25.098039%,25.098039%);fill-opacity:1;" d="M 65.789062 89.472656 C 64.210938 89.472656 63.15625 88.421875 63.15625 86.84375 L 63.15625 76.316406 C 63.15625 74.738281 64.210938 73.683594 65.789062 73.683594 C 67.367188 73.683594 68.421875 74.738281 68.421875 76.316406 L 68.421875 86.84375 C 68.421875 88.421875 67.367188 89.472656 65.789062 89.472656 Z M 65.789062 89.472656 "/>
<path style=" stroke:none;fill-rule:nonzero;fill:rgb(25.098039%,25.098039%,25.098039%);fill-opacity:1;" d="M 74.738281 52.632812 L 59.472656 52.632812 C 58.421875 52.632812 57.894531 52.105469 57.367188 51.578125 L 50 37.894531 C 49.472656 36.84375 49.472656 36.316406 50 35.261719 L 57.367188 22.105469 C 57.894531 21.578125 58.949219 21.050781 59.472656 21.050781 L 74.738281 21.050781 C 75.789062 21.050781 76.316406 21.578125 76.84375 22.105469 L 84.210938 35.261719 C 84.738281 36.316406 84.738281 36.84375 84.210938 37.894531 L 76.84375 51.050781 C 76.84375 52.105469 75.789062 52.632812 74.738281 52.632812 Z M 61.050781 47.367188 L 73.15625 47.367188 L 79.472656 36.84375 L 73.15625 26.316406 L 61.050781 26.316406 L 54.738281 36.84375 Z M 61.050781 47.367188 "/>
</g>
</svg>
