<?xml version="1.0" encoding="UTF-8"?>
<svg xmlns="http://www.w3.org/2000/svg" xmlns:xlink="http://www.w3.org/1999/xlink" width="100px" height="100px" viewBox="0 0 100 100" version="1.1">
<g id="surface1">
<path style=" stroke:none;fill-rule:nonzero;fill:rgb(25.098039%,25.098039%,25.098039%);fill-opacity:1;" d="M 34.738281 84.210938 C 26.84375 84.210938 18.949219 80.527344 13.15625 74.738281 C 7.894531 68.949219 5.261719 61.050781 5.789062 52.632812 C 6.84375 37.894531 20.527344 26.316406 35.789062 26.316406 L 73.683594 26.316406 L 73.683594 31.578125 L 35.789062 31.578125 C 22.632812 31.578125 12.105469 41.050781 11.050781 53.15625 C 10.527344 60 12.632812 66.316406 17.367188 71.050781 C 21.578125 76.316406 27.894531 78.949219 34.738281 78.949219 C 47.894531 78.949219 58.421875 68.421875 58.421875 55.261719 L 58.421875 52.632812 L 73.683594 52.632812 L 73.683594 57.894531 L 63.683594 57.894531 C 62.105469 72.632812 49.472656 84.210938 34.738281 84.210938 Z M 34.738281 84.210938 "/>
<path style=" stroke:none;fill-rule:nonzero;fill:rgb(25.098039%,25.098039%,25.098039%);fill-opacity:1;" d="M 36.84375 73.683594 C 27.894531 73.683594 21.050781 66.84375 21.050781 57.894531 C 21.050781 48.949219 27.894531 42.105469 36.84375 42.105469 C 45.789062 42.105469 52.632812 48.949219 52.632812 57.894531 C 52.632812 66.84375 45.789062 73.683594 36.84375 73.683594 Z M 36.84375 47.367188 C 31.050781 47.367188 26.316406 52.105469 26.316406 57.894531 C 26.316406 63.683594 31.050781 68.421875 36.84375 68.421875 C 42.632812 68.421875 47.367188 63.683594 47.367188 57.894531 C 47.367188 52.105469 42.632812 47.367188 36.84375 47.367188 Z M 36.84375 47.367188 "/>
<path style=" stroke:none;fill-rule:nonzero;fill:rgb(25.098039%,25.098039%,25.098039%);fill-opacity:1;" d="M 73.683594 21.050781 L 78.949219 21.050781 L 78.949219 63.15625 L 73.683594 63.15625 Z M 73.683594 21.050781 "/>
<path style=" stroke:none;fill-rule:nonzero;fill:rgb(25.098039%,25.098039%,25.098039%);fill-opacity:1;" d="M 25.765625 50.234375 L 29.488281 46.511719 L 47.351562 64.375 L 43.632812 68.097656 Z M 25.765625 50.234375 "/>
<path style=" stroke:none;fill-rule:nonzero;fill:rgb(25.098039%,25.098039%,25.098039%);fill-opacity:1;" d="M 25.765625 65.121094 L 43.632812 47.257812 L 47.351562 50.976562 L 29.488281 68.839844 Z M 25.765625 65.121094 "/>
<path style=" stroke:none;fill-rule:nonzero;fill:rgb(25.098039%,25.098039%,25.098039%);fill-opacity:1;" d="M 84.210938 26.316406 L 94.738281 26.316406 L 94.738281 31.578125 L 84.210938 31.578125 Z M 84.210938 26.316406 "/>
<path style=" stroke:none;fill-rule:nonzero;fill:rgb(25.098039%,25.098039%,25.098039%);fill-opacity:1;" d="M 84.210938 36.84375 L 94.738281 36.84375 L 94.738281 42.105469 L 84.210938 42.105469 Z M 84.210938 36.84375 "/>
<path style=" stroke:none;fill-rule:nonzero;fill:rgb(25.098039%,25.098039%,25.098039%);fill-opacity:1;" d="M 84.210938 47.367188 L 94.738281 47.367188 L 94.738281 52.632812 L 84.210938 52.632812 Z M 84.210938 47.367188 "/>
</g>
</svg>
