<?xml version="1.0" encoding="UTF-8"?>
<svg xmlns="http://www.w3.org/2000/svg" xmlns:xlink="http://www.w3.org/1999/xlink" width="100px" height="100px" viewBox="0 0 100 100" version="1.1">
<g id="surface1">
<path style=" stroke:none;fill-rule:nonzero;fill:rgb(25.098039%,25.098039%,25.098039%);fill-opacity:1;" d="M 65.261719 64.210938 C 63.683594 64.210938 62.632812 63.15625 62.632812 61.578125 C 62.632812 47.894531 51.578125 36.84375 37.894531 36.84375 C 36.84375 36.84375 35.261719 35.789062 35.261719 34.210938 C 35.261719 32.632812 36.84375 31.578125 37.894531 31.578125 C 54.210938 31.578125 67.894531 45.261719 67.894531 61.578125 C 67.894531 63.15625 66.84375 64.210938 65.261719 64.210938 Z M 65.261719 64.210938 "/>
<path style=" stroke:none;fill-rule:nonzero;fill:rgb(25.098039%,25.098039%,25.098039%);fill-opacity:1;" d="M 76.316406 64.210938 C 74.738281 64.210938 73.683594 63.15625 73.683594 61.578125 C 73.683594 42.105469 57.894531 26.316406 37.894531 26.316406 C 36.84375 26.316406 35.261719 24.738281 35.261719 23.683594 C 35.261719 22.632812 36.84375 21.050781 37.894531 21.050781 C 60.527344 21.050781 78.949219 39.472656 78.949219 62.105469 C 78.949219 63.15625 77.894531 64.210938 76.316406 64.210938 Z M 76.316406 64.210938 "/>
<path style=" stroke:none;fill-rule:nonzero;fill:rgb(25.098039%,25.098039%,25.098039%);fill-opacity:1;" d="M 87.367188 64.210938 C 85.789062 64.210938 84.738281 63.15625 84.738281 61.578125 C 84.738281 35.789062 63.683594 15.261719 38.421875 15.261719 C 36.84375 15.261719 35.261719 14.210938 35.261719 12.632812 C 35.261719 11.050781 36.84375 10 37.894531 10 C 66.316406 10 89.472656 33.15625 89.472656 61.578125 C 90 63.15625 88.949219 64.210938 87.367188 64.210938 Z M 87.367188 64.210938 "/>
<path style=" stroke:none;fill-rule:nonzero;fill:rgb(25.098039%,25.098039%,25.098039%);fill-opacity:1;" d="M 41.578125 89.472656 C 34.738281 89.472656 26.84375 87.367188 19.472656 80 C 2.632812 63.15625 13.15625 43.15625 13.15625 42.632812 C 13.683594 42.105469 14.738281 41.578125 15.261719 41.578125 C 16.316406 41.578125 16.84375 41.578125 17.367188 42.105469 L 56.84375 81.578125 C 57.367188 82.105469 57.894531 83.15625 57.367188 83.683594 C 57.367188 84.738281 56.84375 85.261719 55.789062 85.789062 C 56.84375 86.316406 50 89.472656 41.578125 89.472656 Z M 16.84375 48.949219 C 15.261719 54.738281 13.15625 66.316406 23.15625 76.316406 C 33.15625 86.316406 44.738281 84.738281 50.527344 82.632812 Z M 16.84375 48.949219 "/>
<path style=" stroke:none;fill-rule:nonzero;fill:rgb(25.098039%,25.098039%,25.098039%);fill-opacity:1;" d="M 50.527344 76.316406 L 45.261719 76.316406 L 46.316406 52.632812 L 21.050781 52.632812 L 21.050781 47.367188 L 48.949219 47.367188 L 51.578125 50 Z M 50.527344 76.316406 "/>
<path style=" stroke:none;fill-rule:nonzero;fill:rgb(25.098039%,25.098039%,25.098039%);fill-opacity:1;" d="M 36.84375 66.316406 C 36.316406 66.316406 35.261719 66.316406 34.738281 65.789062 C 33.683594 64.738281 33.683594 63.15625 34.738281 62.105469 L 47.367188 50 C 48.421875 48.949219 50 48.949219 51.050781 50 C 52.105469 51.050781 52.105469 52.632812 51.050781 53.683594 L 38.949219 65.789062 C 38.421875 66.316406 37.367188 66.316406 36.84375 66.316406 Z M 36.84375 66.316406 "/>
</g>
</svg>
