<?xml version="1.0" encoding="UTF-8"?>
<svg xmlns="http://www.w3.org/2000/svg" xmlns:xlink="http://www.w3.org/1999/xlink" width="100px" height="100px" viewBox="0 0 100 100" version="1.1">
<g id="surface1">
<path style=" stroke:none;fill-rule:nonzero;fill:rgb(25.098039%,25.098039%,25.098039%);fill-opacity:1;" d="M 50 84.210938 C 31.050781 84.210938 15.789062 68.949219 15.789062 50 C 15.789062 31.050781 31.050781 15.789062 50 15.789062 C 68.949219 15.789062 84.210938 31.050781 84.210938 50 C 84.210938 68.949219 68.949219 84.210938 50 84.210938 Z M 50 21.050781 C 34.210938 21.050781 21.050781 34.210938 21.050781 50 C 21.050781 65.789062 34.210938 78.949219 50 78.949219 C 65.789062 78.949219 78.949219 65.789062 78.949219 50 C 78.949219 34.210938 65.789062 21.050781 50 21.050781 Z M 50 21.050781 "/>
<path style=" stroke:none;fill-rule:nonzero;fill:rgb(25.098039%,25.098039%,25.098039%);fill-opacity:1;" d="M 50 94.738281 C 25.261719 94.738281 5.261719 74.738281 5.261719 50 C 5.261719 25.261719 25.261719 5.261719 50 5.261719 C 74.738281 5.261719 94.738281 25.261719 94.738281 50 C 94.738281 74.738281 74.738281 94.738281 50 94.738281 Z M 50 10.527344 C 28.421875 10.527344 10.527344 28.421875 10.527344 50 C 10.527344 71.578125 28.421875 89.472656 50 89.472656 C 71.578125 89.472656 89.472656 71.578125 89.472656 50 C 89.472656 28.421875 71.578125 10.527344 50 10.527344 Z M 50 10.527344 "/>
<path style=" stroke:none;fill-rule:nonzero;fill:rgb(25.098039%,25.098039%,25.098039%);fill-opacity:1;" d="M 25.808594 29.53125 L 29.53125 25.808594 L 74.191406 70.46875 L 70.46875 74.191406 Z M 25.808594 29.53125 "/>
<path style=" stroke:none;fill-rule:nonzero;fill:rgb(25.098039%,25.098039%,25.098039%);fill-opacity:1;" d="M 25.808594 70.46875 L 70.46875 25.808594 L 74.191406 29.53125 L 29.53125 74.191406 Z M 25.808594 70.46875 "/>
<path style=" stroke:none;fill-rule:nonzero;fill:rgb(25.098039%,25.098039%,25.098039%);fill-opacity:1;" d="M 18.421875 47.367188 L 81.578125 47.367188 L 81.578125 52.632812 L 18.421875 52.632812 Z M 18.421875 47.367188 "/>
<path style=" stroke:none;fill-rule:nonzero;fill:rgb(25.098039%,25.098039%,25.098039%);fill-opacity:1;" d="M 47.367188 18.421875 L 52.632812 18.421875 L 52.632812 81.578125 L 47.367188 81.578125 Z M 47.367188 18.421875 "/>
</g>
</svg>
