<?xml version="1.0" encoding="UTF-8"?>
<svg xmlns="http://www.w3.org/2000/svg" xmlns:xlink="http://www.w3.org/1999/xlink" width="100px" height="100px" viewBox="0 0 100 100" version="1.1">
<g id="surface1">
<path style=" stroke:none;fill-rule:nonzero;fill:rgb(25.098039%,25.098039%,25.098039%);fill-opacity:1;" d="M 52.632812 85.789062 C 52.105469 85.789062 52.105469 85.789062 51.578125 85.789062 C 50 85.261719 49.472656 83.683594 50 82.632812 C 50 82.632812 53.15625 74.738281 50 66.84375 C 46.316406 56.84375 50 47.367188 50 46.84375 C 50.527344 45.261719 52.105469 44.738281 53.15625 45.261719 C 54.738281 45.789062 55.261719 47.367188 54.738281 48.421875 C 54.738281 48.421875 51.578125 56.316406 54.738281 64.210938 C 58.421875 74.210938 54.738281 83.683594 54.738281 84.210938 C 54.738281 85.261719 53.683594 85.789062 52.632812 85.789062 Z M 52.632812 85.789062 "/>
<path style=" stroke:none;fill-rule:nonzero;fill:rgb(25.098039%,25.098039%,25.098039%);fill-opacity:1;" d="M 64.210938 85.789062 C 63.683594 85.789062 63.683594 85.789062 63.15625 85.789062 C 61.578125 85.261719 61.050781 83.683594 61.578125 82.632812 C 61.578125 82.632812 64.738281 74.738281 61.578125 66.84375 C 57.894531 56.84375 61.578125 47.367188 61.578125 46.84375 C 62.105469 45.261719 63.683594 44.738281 64.738281 45.261719 C 66.316406 45.789062 66.84375 47.367188 66.316406 48.421875 C 66.316406 48.421875 63.15625 56.316406 66.316406 64.210938 C 70 74.210938 66.316406 83.683594 66.316406 84.210938 C 66.316406 85.261719 65.261719 85.789062 64.210938 85.789062 Z M 64.210938 85.789062 "/>
<path style=" stroke:none;fill-rule:nonzero;fill:rgb(25.098039%,25.098039%,25.098039%);fill-opacity:1;" d="M 75.789062 85.789062 C 75.261719 85.789062 75.261719 85.789062 74.738281 85.789062 C 73.15625 85.261719 72.632812 83.683594 73.15625 82.632812 C 73.15625 82.632812 76.316406 74.738281 73.15625 66.84375 C 69.472656 56.84375 73.15625 47.367188 73.15625 46.84375 C 73.683594 45.261719 75.261719 44.738281 76.316406 45.261719 C 77.894531 45.789062 78.949219 47.367188 78.421875 48.421875 C 78.421875 48.421875 75.261719 56.316406 78.421875 64.210938 C 82.105469 74.210938 78.421875 83.683594 78.421875 84.210938 C 77.894531 85.261719 76.84375 85.789062 75.789062 85.789062 Z M 75.789062 85.789062 "/>
<path style=" stroke:none;fill-rule:nonzero;fill:rgb(25.098039%,25.098039%,25.098039%);fill-opacity:1;" d="M 94.738281 94.738281 L 20.527344 94.738281 L 7.894531 10.527344 L 19.472656 10.527344 C 28.949219 10.527344 36.84375 18.421875 36.84375 27.894531 L 36.84375 77.367188 L 75.261719 66.316406 C 80 64.738281 84.738281 65.789062 88.421875 68.949219 C 92.105469 72.105469 94.738281 76.316406 94.738281 81.050781 Z M 24.738281 89.472656 L 89.472656 89.472656 L 89.472656 80.527344 C 89.472656 77.367188 87.894531 74.210938 85.261719 72.632812 C 82.632812 70.527344 79.472656 70 76.316406 71.050781 L 31.578125 84.210938 L 31.578125 27.894531 C 31.578125 21.050781 26.316406 15.789062 19.472656 15.789062 L 14.210938 15.789062 Z M 24.738281 89.472656 "/>
</g>
</svg>
