<?xml version="1.0" encoding="UTF-8"?>
<svg xmlns="http://www.w3.org/2000/svg" xmlns:xlink="http://www.w3.org/1999/xlink" width="100px" height="100px" viewBox="0 0 100 100" version="1.1">
<g id="surface1">
<path style=" stroke:none;fill-rule:nonzero;fill:rgb(25.098039%,25.098039%,25.098039%);fill-opacity:1;" d="M 13.683594 95.261719 L 8.421875 94.210938 L 10.527344 84.210938 L 15.789062 85.261719 Z M 17.367188 80 L 12.105469 78.949219 L 14.738281 68.421875 L 20 69.472656 Z M 21.050781 64.738281 L 15.789062 63.15625 L 17.894531 53.15625 L 23.15625 54.210938 Z M 24.210938 48.949219 L 18.949219 47.894531 L 21.050781 37.894531 L 26.316406 38.949219 Z M 27.894531 33.683594 L 22.632812 32.632812 L 24.738281 22.632812 L 30 23.683594 Z M 31.578125 18.421875 L 26.316406 17.367188 L 27.894531 10 L 33.15625 11.050781 Z M 31.578125 18.421875 "/>
<path style=" stroke:none;fill-rule:nonzero;fill:rgb(25.098039%,25.098039%,25.098039%);fill-opacity:1;" d="M 91.578125 95.261719 L 89.472656 85.261719 L 94.738281 84.210938 L 96.84375 94.210938 Z M 87.894531 80 L 85.789062 70 L 91.050781 68.949219 L 93.15625 78.949219 Z M 84.210938 64.738281 L 82.105469 54.738281 L 87.367188 53.683594 L 89.472656 63.15625 Z M 81.050781 48.949219 L 78.949219 38.949219 L 84.210938 37.894531 L 86.316406 47.894531 Z M 77.367188 33.683594 L 75.261719 23.683594 L 80.527344 22.632812 L 82.632812 32.632812 Z M 73.683594 18.421875 L 72.105469 11.050781 L 77.367188 10 L 78.949219 17.367188 Z M 73.683594 18.421875 "/>
<path style=" stroke:none;fill-rule:nonzero;fill:rgb(25.098039%,25.098039%,25.098039%);fill-opacity:1;" d="M 68.949219 50.527344 C 68.949219 47.894531 68.949219 45.789062 65.261719 45.789062 C 65.261719 42.105469 65.261719 38.949219 64.738281 37.367188 C 63.683594 28.949219 57.894531 29.472656 52.105469 29.472656 C 46.316406 29.472656 41.050781 29.472656 39.472656 37.367188 C 39.472656 38.949219 38.949219 42.105469 38.949219 45.789062 C 35.261719 45.789062 35.261719 47.894531 35.261719 50.527344 L 38.949219 50.527344 C 38.949219 60.527344 38.949219 73.15625 39.472656 79.472656 C 39.472656 82.105469 41.578125 84.738281 44.210938 85.261719 C 47.894531 86.316406 52.105469 85.789062 52.105469 85.789062 C 52.105469 85.789062 56.316406 85.789062 60 85.261719 C 62.632812 84.738281 64.738281 82.105469 64.738281 79.472656 C 64.738281 73.15625 65.261719 60.527344 65.261719 50.527344 Z M 52.105469 75.789062 C 47.367188 75.789062 45.261719 75.261719 43.683594 74.738281 C 43.15625 74.738281 42.632812 73.683594 43.15625 73.15625 L 44.210938 68.949219 C 44.210938 68.421875 44.738281 67.894531 45.789062 67.894531 C 48.949219 68.421875 55.789062 68.421875 58.949219 67.894531 C 59.472656 67.894531 60 68.421875 60.527344 68.949219 L 61.578125 73.15625 C 61.578125 73.683594 61.578125 74.210938 61.050781 74.738281 C 58.949219 75.261719 56.84375 75.789062 52.105469 75.789062 Z M 60 49.472656 C 60 50.527344 58.949219 51.050781 58.421875 50.527344 C 56.84375 50.527344 54.738281 50.527344 52.632812 50 C 50 50 47.894531 50 46.84375 50.527344 C 45.789062 50.527344 45.261719 50 45.261719 49.472656 L 43.15625 44.738281 C 43.15625 43.683594 43.15625 42.632812 44.210938 42.632812 C 46.316406 42.105469 49.472656 41.578125 52.105469 41.578125 C 55.261719 41.578125 57.894531 42.105469 60 42.632812 C 61.050781 43.15625 61.578125 43.683594 61.050781 44.738281 Z M 60 49.472656 "/>
</g>
</svg>
