<?xml version="1.0" encoding="UTF-8"?>
<svg xmlns="http://www.w3.org/2000/svg" xmlns:xlink="http://www.w3.org/1999/xlink" width="100px" height="100px" viewBox="0 0 100 100" version="1.1">
<g id="surface1">
<path style=" stroke:none;fill-rule:nonzero;fill:rgb(25.098039%,25.098039%,25.098039%);fill-opacity:1;" d="M 67.367188 37.894531 C 66.84375 37.894531 65.789062 37.894531 65.261719 37.367188 C 55.789062 27.894531 40 27.894531 30.527344 37.367188 C 29.472656 37.894531 27.894531 37.894531 26.84375 36.84375 C 25.789062 35.789062 25.789062 34.210938 26.84375 33.15625 C 38.421875 21.578125 57.367188 21.578125 68.949219 33.15625 C 70 34.210938 70 35.789062 68.949219 36.84375 C 68.421875 37.367188 67.894531 37.894531 67.367188 37.894531 Z M 67.367188 37.894531 "/>
<path style=" stroke:none;fill-rule:nonzero;fill:rgb(25.098039%,25.098039%,25.098039%);fill-opacity:1;" d="M 74.738281 30 C 74.210938 30 73.15625 30 72.632812 29.472656 C 58.949219 15.789062 36.316406 15.789062 22.105469 29.472656 C 21.050781 30.527344 19.472656 30.527344 18.421875 29.472656 C 17.367188 28.421875 17.894531 26.316406 18.949219 25.789062 C 34.738281 10 61.050781 10 76.84375 25.789062 C 77.894531 26.84375 77.894531 28.421875 76.84375 29.472656 C 76.316406 30 75.789062 30 74.738281 30 Z M 74.738281 30 "/>
<path style=" stroke:none;fill-rule:nonzero;fill:rgb(25.098039%,25.098039%,25.098039%);fill-opacity:1;" d="M 82.632812 22.105469 C 82.105469 22.105469 81.050781 22.105469 80.527344 21.578125 C 71.578125 12.632812 60 7.894531 47.367188 7.894531 C 34.738281 7.894531 23.683594 12.632812 14.738281 21.578125 C 13.683594 22.632812 12.105469 22.632812 11.050781 21.578125 C 10 20.527344 10 18.949219 11.050781 17.894531 C 21.050781 7.894531 33.683594 2.632812 47.894531 2.632812 C 62.105469 2.632812 74.738281 7.894531 84.738281 17.894531 C 85.789062 18.949219 85.789062 20.527344 84.738281 21.578125 C 84.210938 22.105469 83.15625 22.105469 82.632812 22.105469 Z M 82.632812 22.105469 "/>
<path style=" stroke:none;fill-rule:nonzero;fill:rgb(25.098039%,25.098039%,25.098039%);fill-opacity:1;" d="M 62.105469 100 L 54.210938 100 C 47.367188 100 42.105469 94.738281 42.105469 88.421875 L 42.105469 39.472656 C 42.105469 37.894531 43.15625 36.84375 44.738281 36.84375 C 46.316406 36.84375 47.367188 37.894531 47.367188 39.472656 L 47.367188 52.632812 L 62.105469 52.632812 C 68.421875 52.632812 73.683594 57.894531 73.683594 64.210938 L 73.683594 87.894531 C 73.683594 94.738281 68.421875 100 62.105469 100 Z M 47.367188 57.894531 L 47.367188 88.421875 C 47.367188 92.105469 50.527344 94.738281 53.683594 94.738281 L 61.578125 94.738281 C 65.261719 94.738281 67.894531 91.578125 67.894531 88.421875 L 67.894531 64.738281 C 67.894531 61.050781 64.738281 58.421875 61.578125 58.421875 L 47.367188 58.421875 Z M 47.367188 57.894531 "/>
<path style=" stroke:none;fill-rule:nonzero;fill:rgb(25.098039%,25.098039%,25.098039%);fill-opacity:1;" d="M 60.527344 73.683594 L 55.261719 73.683594 C 53.683594 73.683594 52.632812 72.632812 52.632812 71.050781 C 52.632812 69.472656 53.683594 68.421875 55.261719 68.421875 L 60.527344 68.421875 C 62.105469 68.421875 63.15625 69.472656 63.15625 71.050781 C 63.15625 72.632812 62.105469 73.683594 60.527344 73.683594 Z M 60.527344 73.683594 "/>
<path style=" stroke:none;fill-rule:nonzero;fill:rgb(25.098039%,25.098039%,25.098039%);fill-opacity:1;" d="M 60.527344 84.210938 L 55.261719 84.210938 C 53.683594 84.210938 52.632812 83.15625 52.632812 81.578125 C 52.632812 80 53.683594 78.949219 55.261719 78.949219 L 60.527344 78.949219 C 62.105469 78.949219 63.15625 80 63.15625 81.578125 C 63.15625 83.15625 62.105469 84.210938 60.527344 84.210938 Z M 60.527344 84.210938 "/>
</g>
</svg>
