<?xml version="1.0" encoding="UTF-8"?>
<svg xmlns="http://www.w3.org/2000/svg" xmlns:xlink="http://www.w3.org/1999/xlink" width="100px" height="100px" viewBox="0 0 100 100" version="1.1">
<g id="surface1">
<path style=" stroke:none;fill-rule:nonzero;fill:rgb(25.098039%,25.098039%,25.098039%);fill-opacity:1;" d="M 72.105469 64.210938 C 71.578125 64.210938 70.527344 64.210938 70 63.683594 C 57.894531 51.050781 38.421875 51.050781 26.316406 63.15625 C 25.261719 64.210938 23.683594 64.210938 22.632812 63.15625 C 21.578125 62.105469 21.578125 60.527344 22.632812 59.472656 C 36.84375 45.261719 60 45.261719 74.210938 59.472656 C 75.261719 60.527344 75.261719 62.105469 74.210938 63.15625 C 73.15625 63.683594 72.632812 64.210938 72.105469 64.210938 Z M 72.105469 64.210938 "/>
<path style=" stroke:none;fill-rule:nonzero;fill:rgb(25.098039%,25.098039%,25.098039%);fill-opacity:1;" d="M 14.738281 54.738281 C 14.210938 54.738281 13.15625 54.738281 12.632812 54.210938 C 11.578125 53.15625 11.578125 51.578125 12.632812 50.527344 C 32.105469 31.050781 63.683594 31.050781 83.15625 50.527344 C 84.210938 51.578125 84.210938 53.15625 83.15625 54.210938 C 82.105469 55.261719 80.527344 55.261719 79.472656 54.210938 C 62.105469 36.84375 33.683594 36.84375 16.316406 54.210938 C 16.316406 54.210938 15.261719 54.738281 14.738281 54.738281 Z M 14.738281 54.738281 "/>
<path style=" stroke:none;fill-rule:nonzero;fill:rgb(25.098039%,25.098039%,25.098039%);fill-opacity:1;" d="M 5.261719 45.261719 C 4.738281 45.261719 3.683594 45.261719 3.15625 44.738281 C 2.105469 43.683594 2.105469 42.105469 3.15625 41.050781 C 27.894531 15.789062 68.421875 15.789062 92.632812 40.527344 C 93.683594 41.578125 93.683594 43.15625 92.632812 44.210938 C 91.578125 45.261719 90 45.261719 88.949219 44.210938 C 66.316406 21.578125 29.472656 21.578125 6.84375 44.210938 C 6.84375 44.738281 5.789062 45.261719 5.261719 45.261719 Z M 5.261719 45.261719 "/>
<path style=" stroke:none;fill-rule:nonzero;fill:rgb(25.098039%,25.098039%,25.098039%);fill-opacity:1;" d="M 47.367188 84.210938 C 41.578125 84.210938 36.84375 79.472656 36.84375 73.683594 C 36.84375 67.894531 41.578125 63.15625 47.367188 63.15625 C 53.15625 63.15625 57.894531 67.894531 57.894531 73.683594 C 57.894531 79.472656 53.15625 84.210938 47.367188 84.210938 Z M 47.367188 68.421875 C 44.210938 68.421875 42.105469 70.527344 42.105469 73.683594 C 42.105469 76.84375 44.210938 78.949219 47.367188 78.949219 C 50.527344 78.949219 52.632812 76.84375 52.632812 73.683594 C 52.632812 70.527344 50.527344 68.421875 47.367188 68.421875 Z M 47.367188 68.421875 "/>
</g>
</svg>
