<?xml version="1.0" encoding="UTF-8"?>
<svg xmlns="http://www.w3.org/2000/svg" xmlns:xlink="http://www.w3.org/1999/xlink" width="100px" height="100px" viewBox="0 0 100 100" version="1.1">
<g id="surface1">
<path style=" stroke:none;fill-rule:nonzero;fill:rgb(25.098039%,25.098039%,25.098039%);fill-opacity:1;" d="M 61.578125 97.367188 C 58.421875 97.367188 54.738281 96.316406 52.105469 94.210938 C 52.105469 94.210938 49.472656 92.632812 45.261719 94.210938 C 38.421875 97.367188 25.789062 96.84375 20.527344 88.421875 C 14.738281 78.421875 11.578125 68.421875 11.578125 58.421875 C 11.578125 46.316406 15.789062 36.84375 23.683594 31.050781 C 29.472656 26.84375 37.367188 25.789062 44.738281 28.949219 C 47.367188 30 50 30 52.632812 28.949219 C 63.15625 25.261719 73.683594 28.421875 80 38.421875 L 81.578125 41.050781 L 79.472656 42.105469 C 74.210938 44.738281 71.578125 50 71.578125 55.789062 C 71.578125 62.632812 75.789062 68.421875 82.105469 70.527344 L 84.738281 71.578125 L 84.210938 74.210938 C 82.632812 79.472656 80.527344 84.738281 77.894531 89.472656 C 75.261719 93.683594 71.578125 96.84375 66.84375 97.894531 C 64.210938 97.367188 63.15625 97.367188 61.578125 97.367188 Z M 48.949219 88.421875 C 52.632812 88.421875 54.738281 90 54.738281 90 C 57.367188 92.105469 61.050781 92.632812 64.210938 91.578125 C 67.367188 91.050781 70.527344 88.949219 72.105469 85.789062 C 74.210938 82.105469 76.316406 77.894531 77.367188 74.210938 C 70 70.527344 65.789062 63.683594 65.789062 55.789062 C 65.789062 49.472656 68.949219 43.15625 74.210938 38.949219 C 69.472656 33.15625 62.105469 31.050781 54.738281 33.683594 C 51.050781 35.261719 46.84375 35.261719 43.15625 33.683594 C 37.367188 31.578125 31.578125 32.105469 26.84375 35.789062 C 20.527344 40 17.367188 48.421875 17.367188 58.421875 C 17.367188 67.367188 20 76.84375 25.261719 85.789062 C 28.949219 91.578125 38.949219 91.578125 43.15625 89.472656 C 45.261719 88.949219 47.367188 88.421875 48.949219 88.421875 Z M 48.949219 88.421875 "/>
<path style=" stroke:none;fill-rule:nonzero;fill:rgb(25.098039%,25.098039%,25.098039%);fill-opacity:1;" d="M 47.367188 25.261719 C 46.316406 25.261719 45.261719 25.261719 44.738281 25.261719 L 42.632812 24.738281 L 42.105469 23.15625 C 41.050781 17.894531 43.15625 12.105469 47.367188 7.894531 C 51.578125 3.683594 57.367188 2.105469 62.632812 2.632812 L 64.210938 3.15625 L 64.738281 5.261719 C 65.789062 10.527344 63.683594 16.316406 59.472656 20.527344 C 56.316406 23.683594 51.578125 25.261719 47.367188 25.261719 Z M 59.472656 7.894531 C 56.316406 7.894531 53.15625 9.472656 51.050781 11.578125 C 48.949219 13.683594 47.367188 17.367188 47.367188 20 C 50.527344 20 53.683594 18.421875 55.789062 16.316406 C 57.894531 14.210938 59.472656 11.050781 59.472656 7.894531 Z M 59.472656 7.894531 "/>
</g>
</svg>
