<?xml version="1.0" encoding="UTF-8"?>
<svg xmlns="http://www.w3.org/2000/svg" xmlns:xlink="http://www.w3.org/1999/xlink" width="100px" height="100px" viewBox="0 0 100 100" version="1.1">
<g id="surface1">
<path style=" stroke:none;fill-rule:nonzero;fill:rgb(25.098039%,25.098039%,25.098039%);fill-opacity:1;" d="M 66.316406 62.632812 C 64.738281 62.632812 63.683594 61.578125 63.683594 60 C 63.683594 46.316406 52.632812 35.261719 38.949219 35.261719 C 37.367188 35.261719 36.316406 34.210938 36.316406 32.632812 C 36.316406 31.050781 37.367188 30 38.949219 30 C 55.261719 30 68.949219 43.683594 68.949219 60 C 68.949219 61.578125 67.894531 62.632812 66.316406 62.632812 Z M 66.316406 62.632812 "/>
<path style=" stroke:none;fill-rule:nonzero;fill:rgb(25.098039%,25.098039%,25.098039%);fill-opacity:1;" d="M 77.367188 62.632812 C 75.789062 62.632812 74.738281 61.578125 74.738281 60 C 74.738281 40.527344 58.949219 24.210938 38.949219 24.210938 C 37.367188 24.210938 36.316406 23.15625 36.316406 21.578125 C 36.316406 20 37.367188 18.949219 38.949219 18.949219 C 61.578125 18.949219 80 37.367188 80 60 C 80 61.578125 78.949219 62.632812 77.367188 62.632812 Z M 77.367188 62.632812 "/>
<path style=" stroke:none;fill-rule:nonzero;fill:rgb(25.098039%,25.098039%,25.098039%);fill-opacity:1;" d="M 88.421875 62.632812 C 86.84375 62.632812 85.789062 61.578125 85.789062 60 C 85.789062 34.210938 64.738281 13.683594 39.472656 13.683594 C 37.894531 13.683594 36.84375 12.632812 36.84375 11.050781 C 36.84375 9.472656 37.894531 8.421875 39.472656 8.421875 C 67.894531 8.421875 91.050781 31.578125 91.050781 60 C 91.050781 61.578125 89.472656 62.632812 88.421875 62.632812 Z M 88.421875 62.632812 "/>
<path style=" stroke:none;fill-rule:nonzero;fill:rgb(25.098039%,25.098039%,25.098039%);fill-opacity:1;" d="M 23.683594 89.472656 C 22.105469 89.472656 21.050781 88.421875 21.050781 86.84375 L 21.050781 42.105469 L 36.84375 42.105469 C 45.789062 42.105469 52.632812 48.949219 52.632812 57.894531 C 52.632812 66.84375 45.789062 73.683594 36.84375 73.683594 L 26.316406 73.683594 L 26.316406 86.84375 C 26.316406 88.421875 25.261719 89.472656 23.683594 89.472656 Z M 26.316406 68.421875 L 36.84375 68.421875 C 42.632812 68.421875 47.367188 63.683594 47.367188 57.894531 C 47.367188 52.105469 42.632812 47.367188 36.84375 47.367188 L 26.316406 47.367188 Z M 26.316406 68.421875 "/>
</g>
</svg>
