<?xml version="1.0" encoding="UTF-8"?>
<svg xmlns="http://www.w3.org/2000/svg" xmlns:xlink="http://www.w3.org/1999/xlink" width="100px" height="100px" viewBox="0 0 100 100" version="1.1">
<g id="surface1">
<path style=" stroke:none;fill-rule:nonzero;fill:rgb(25.098039%,25.098039%,25.098039%);fill-opacity:1;" d="M 63.683594 30.527344 C 63.683594 36.316406 68.421875 41.050781 74.210938 41.050781 C 80 41.050781 84.738281 36.316406 84.738281 30.527344 C 84.738281 24.738281 74.210938 10.527344 74.210938 10.527344 C 74.210938 10.527344 63.683594 24.738281 63.683594 30.527344 Z M 63.683594 30.527344 "/>
<path style=" stroke:none;fill-rule:nonzero;fill:rgb(25.098039%,25.098039%,25.098039%);fill-opacity:1;" d="M 76.316406 89.472656 L 19.472656 89.472656 C 18.421875 89.472656 17.367188 88.949219 16.84375 87.894531 L 5.261719 59.472656 C 4.738281 58.421875 5.261719 56.84375 6.316406 56.316406 C 23.683594 44.738281 46.84375 44.738281 47.894531 44.738281 C 48.949219 44.738281 71.578125 44.738281 89.472656 56.316406 C 90.527344 56.84375 91.050781 58.421875 90.527344 59.472656 L 78.949219 87.894531 C 78.421875 88.949219 77.367188 89.472656 76.316406 89.472656 Z M 21.050781 84.210938 L 74.210938 84.210938 L 84.210938 59.472656 C 68.421875 50 47.894531 49.472656 47.367188 49.472656 C 46.84375 49.472656 26.84375 49.472656 10.527344 59.472656 Z M 21.050781 84.210938 "/>
<path style=" stroke:none;fill-rule:nonzero;fill:rgb(25.098039%,25.098039%,25.098039%);fill-opacity:1;" d="M 29.472656 88.421875 C 28.949219 88.421875 28.949219 88.421875 28.421875 88.421875 C 26.84375 87.894531 26.316406 86.316406 26.84375 84.738281 L 38.949219 57.367188 C 39.472656 55.789062 41.050781 55.261719 42.632812 55.789062 C 44.210938 56.316406 44.738281 57.894531 44.210938 59.472656 L 32.105469 86.84375 C 31.578125 87.894531 30.527344 88.421875 29.472656 88.421875 Z M 29.472656 88.421875 "/>
<path style=" stroke:none;fill-rule:nonzero;fill:rgb(25.098039%,25.098039%,25.098039%);fill-opacity:1;" d="M 52.632812 88.421875 C 52.105469 88.421875 52.105469 88.421875 51.578125 88.421875 C 50 87.894531 49.472656 86.316406 50 84.738281 L 62.105469 57.367188 C 62.632812 55.789062 64.210938 55.261719 65.789062 55.789062 C 67.367188 56.316406 67.894531 57.894531 67.367188 59.472656 L 55.261719 86.84375 C 54.210938 87.894531 53.683594 88.421875 52.632812 88.421875 Z M 52.632812 88.421875 "/>
</g>
</svg>
