<?xml version="1.0" encoding="UTF-8"?>
<svg xmlns="http://www.w3.org/2000/svg" xmlns:xlink="http://www.w3.org/1999/xlink" width="100px" height="100px" viewBox="0 0 100 100" version="1.1">
<g id="surface1">
<path style=" stroke:none;fill-rule:nonzero;fill:rgb(25.098039%,25.098039%,25.098039%);fill-opacity:1;" d="M 50 68.421875 C 44.210938 68.421875 38.421875 65.789062 34.738281 60.527344 C 28.949219 52.632812 31.050781 41.050781 39.472656 34.738281 C 40.527344 34.210938 42.105469 34.210938 43.15625 35.789062 C 43.683594 36.84375 43.683594 38.421875 42.632812 39.472656 C 36.84375 43.683594 35.261719 52.105469 39.472656 57.894531 C 43.683594 63.683594 52.105469 65.261719 57.894531 61.050781 C 58.949219 60 60.527344 60.527344 61.578125 61.578125 C 62.632812 62.632812 62.105469 64.210938 61.050781 65.261719 C 57.367188 67.367188 53.683594 68.421875 50 68.421875 Z M 50 68.421875 "/>
<path style=" stroke:none;fill-rule:nonzero;fill:rgb(25.098039%,25.098039%,25.098039%);fill-opacity:1;" d="M 21.050781 79.472656 C 20.527344 79.472656 19.472656 78.949219 18.949219 78.421875 C 17.894531 77.367188 17.894531 75.789062 18.949219 74.738281 L 28.421875 65.789062 C 29.472656 64.738281 31.050781 64.738281 32.105469 65.789062 C 33.15625 66.84375 33.15625 68.421875 32.105469 69.472656 L 22.632812 78.949219 C 22.105469 79.472656 21.578125 79.472656 21.050781 79.472656 Z M 21.050781 79.472656 "/>
<path style=" stroke:none;fill-rule:nonzero;fill:rgb(25.098039%,25.098039%,25.098039%);fill-opacity:1;" d="M 69.472656 34.738281 C 68.949219 34.738281 67.894531 34.210938 67.367188 33.683594 C 66.316406 32.632812 66.316406 31.050781 67.367188 30 L 77.367188 21.050781 C 78.421875 20 80 20 81.050781 21.050781 C 82.105469 22.105469 82.105469 23.683594 81.050781 24.738281 L 71.578125 33.683594 C 70.527344 34.738281 70 34.738281 69.472656 34.738281 Z M 69.472656 34.738281 "/>
<path style=" stroke:none;fill-rule:nonzero;fill:rgb(25.098039%,25.098039%,25.098039%);fill-opacity:1;" d="M 76.84375 81.578125 C 76.316406 81.578125 75.261719 81.050781 74.738281 80.527344 L 65.789062 71.050781 C 64.738281 70 64.738281 68.421875 65.789062 67.367188 C 66.84375 66.316406 68.421875 66.316406 69.472656 67.367188 L 78.421875 76.84375 C 79.472656 77.894531 79.472656 79.472656 78.421875 80.527344 C 77.894531 81.578125 77.367188 81.578125 76.84375 81.578125 Z M 76.84375 81.578125 "/>
<path style=" stroke:none;fill-rule:nonzero;fill:rgb(25.098039%,25.098039%,25.098039%);fill-opacity:1;" d="M 32.105469 33.15625 C 31.578125 33.15625 30.527344 33.15625 30 32.632812 L 21.050781 22.632812 C 20 21.578125 20 20 21.050781 18.949219 C 22.105469 17.894531 23.683594 17.894531 24.738281 18.949219 L 33.683594 28.421875 C 34.738281 29.472656 34.738281 31.050781 33.683594 32.105469 C 33.15625 33.15625 32.632812 33.15625 32.105469 33.15625 Z M 32.105469 33.15625 "/>
<path style=" stroke:none;fill-rule:nonzero;fill:rgb(25.098039%,25.098039%,25.098039%);fill-opacity:1;" d="M 89.472656 54.210938 L 76.316406 53.683594 C 74.738281 53.683594 73.683594 52.632812 73.683594 51.050781 C 73.683594 49.472656 75.261719 48.421875 76.316406 48.421875 L 89.472656 48.949219 C 91.050781 48.949219 92.105469 50 92.105469 51.578125 C 92.105469 53.15625 91.050781 54.210938 89.472656 54.210938 Z M 89.472656 54.210938 "/>
<path style=" stroke:none;fill-rule:nonzero;fill:rgb(25.098039%,25.098039%,25.098039%);fill-opacity:1;" d="M 23.683594 51.578125 L 10.527344 51.050781 C 8.949219 51.050781 7.894531 50 7.894531 48.421875 C 7.894531 46.84375 9.472656 45.789062 10.527344 45.789062 L 23.683594 46.316406 C 25.261719 46.316406 26.316406 47.894531 26.316406 48.949219 C 26.316406 50.527344 25.261719 51.578125 23.683594 51.578125 Z M 23.683594 51.578125 "/>
<path style=" stroke:none;fill-rule:nonzero;fill:rgb(25.098039%,25.098039%,25.098039%);fill-opacity:1;" d="M 51.050781 26.316406 C 49.472656 26.316406 48.421875 25.261719 48.421875 23.683594 L 48.949219 10.527344 C 48.949219 8.949219 50.527344 7.894531 51.578125 7.894531 C 53.15625 7.894531 54.210938 8.949219 54.210938 10.527344 L 53.683594 23.683594 C 53.683594 25.261719 52.632812 26.316406 51.050781 26.316406 Z M 51.050781 26.316406 "/>
<path style=" stroke:none;fill-rule:nonzero;fill:rgb(25.098039%,25.098039%,25.098039%);fill-opacity:1;" d="M 48.421875 92.105469 C 46.84375 92.105469 45.789062 91.050781 45.789062 89.472656 L 46.316406 76.316406 C 46.316406 74.738281 47.894531 73.683594 48.949219 73.683594 C 50.527344 73.683594 51.578125 74.738281 51.578125 76.316406 L 51.050781 89.472656 C 51.050781 91.050781 50 92.105469 48.421875 92.105469 Z M 48.421875 92.105469 "/>
</g>
</svg>
