<?xml version="1.0" encoding="UTF-8"?>
<svg xmlns="http://www.w3.org/2000/svg" xmlns:xlink="http://www.w3.org/1999/xlink" width="100px" height="100px" viewBox="0 0 100 100" version="1.1">
<g id="surface1">
<path style=" stroke:none;fill-rule:nonzero;fill:rgb(25.098039%,25.098039%,25.098039%);fill-opacity:1;" d="M 71.578125 57.367188 C 70 57.367188 68.949219 56.316406 68.949219 54.738281 C 68.949219 41.050781 57.894531 30 44.210938 30 C 42.632812 30 41.578125 28.949219 41.578125 27.367188 C 41.578125 25.789062 42.632812 24.738281 44.210938 24.738281 C 60.527344 24.738281 74.210938 38.421875 74.210938 54.738281 C 74.210938 56.316406 73.15625 57.367188 71.578125 57.367188 Z M 71.578125 57.367188 "/>
<path style=" stroke:none;fill-rule:nonzero;fill:rgb(25.098039%,25.098039%,25.098039%);fill-opacity:1;" d="M 82.632812 57.367188 C 81.050781 57.367188 80 56.316406 80 54.738281 C 80 35.261719 64.210938 18.949219 44.210938 18.949219 C 42.632812 18.949219 41.578125 17.894531 41.578125 16.316406 C 41.578125 14.738281 42.632812 13.683594 44.210938 13.683594 C 66.84375 13.683594 85.261719 32.105469 85.261719 54.738281 C 85.261719 56.316406 84.210938 57.367188 82.632812 57.367188 Z M 82.632812 57.367188 "/>
<path style=" stroke:none;fill-rule:nonzero;fill:rgb(25.098039%,25.098039%,25.098039%);fill-opacity:1;" d="M 93.683594 57.367188 C 92.105469 57.367188 91.050781 56.316406 91.050781 54.738281 C 91.050781 28.949219 70 8.421875 44.738281 8.421875 C 43.15625 8.421875 42.105469 7.367188 42.105469 5.789062 C 42.105469 4.210938 43.15625 3.15625 44.738281 3.15625 C 73.15625 3.15625 96.316406 26.316406 96.316406 54.738281 C 96.316406 56.316406 94.738281 57.367188 93.683594 57.367188 Z M 93.683594 57.367188 "/>
<path style=" stroke:none;fill-rule:nonzero;fill:rgb(25.098039%,25.098039%,25.098039%);fill-opacity:1;" d="M 44.738281 94.738281 L 18.421875 94.738281 C 14.210938 94.738281 10.527344 91.050781 10.527344 86.84375 L 10.527344 65.789062 C 10.527344 61.578125 14.210938 57.894531 18.421875 57.894531 L 44.738281 57.894531 C 48.949219 57.894531 52.632812 61.578125 52.632812 65.789062 L 52.632812 86.84375 C 52.632812 91.050781 48.949219 94.738281 44.738281 94.738281 Z M 18.421875 63.15625 C 16.84375 63.15625 15.789062 64.210938 15.789062 65.789062 L 15.789062 86.84375 C 15.789062 88.421875 16.84375 89.472656 18.421875 89.472656 L 44.738281 89.472656 C 46.316406 89.472656 47.367188 88.421875 47.367188 86.84375 L 47.367188 65.789062 C 47.367188 64.210938 46.316406 63.15625 44.738281 63.15625 Z M 18.421875 63.15625 "/>
<path style=" stroke:none;fill-rule:nonzero;fill:rgb(25.098039%,25.098039%,25.098039%);fill-opacity:1;" d="M 23.683594 63.15625 C 22.105469 63.15625 21.050781 62.105469 21.050781 60.527344 L 21.050781 46.84375 C 21.050781 41.578125 25.789062 36.84375 31.050781 36.84375 L 31.578125 36.84375 C 37.367188 36.84375 42.105469 41.578125 42.105469 46.84375 L 42.105469 50 C 42.105469 51.578125 41.050781 52.632812 39.472656 52.632812 C 37.894531 52.632812 36.84375 51.578125 36.84375 50 L 36.84375 46.84375 C 36.84375 44.210938 34.738281 42.105469 32.105469 42.105469 L 31.050781 42.105469 C 28.421875 42.105469 26.316406 44.210938 26.316406 46.84375 L 26.316406 60.527344 C 26.316406 62.105469 25.261719 63.15625 23.683594 63.15625 Z M 23.683594 63.15625 "/>
</g>
</svg>
