<?xml version="1.0" encoding="UTF-8"?>
<svg xmlns="http://www.w3.org/2000/svg" xmlns:xlink="http://www.w3.org/1999/xlink" width="100px" height="100px" viewBox="0 0 100 100" version="1.1">
<g id="surface1">
<path style=" stroke:none;fill-rule:nonzero;fill:rgb(25.098039%,25.098039%,25.098039%);fill-opacity:1;" d="M 47.894531 89.472656 C 46.84375 89.472656 46.316406 88.949219 45.789062 88.421875 C 44.738281 86.84375 19.472656 53.15625 19.472656 38.421875 C 19.472656 22.632812 32.105469 10 47.894531 10 C 63.683594 10 76.316406 22.632812 76.316406 38.421875 C 76.316406 53.15625 51.050781 86.84375 50 88.421875 C 49.472656 88.949219 48.949219 89.472656 47.894531 89.472656 Z M 47.894531 15.261719 C 35.261719 15.261719 24.738281 25.789062 24.738281 38.421875 C 24.738281 48.421875 40 71.050781 47.894531 82.105469 C 55.789062 71.050781 71.050781 47.894531 71.050781 38.421875 C 71.050781 25.789062 60.527344 15.261719 47.894531 15.261719 Z M 47.894531 15.261719 "/>
<path style=" stroke:none;fill-rule:nonzero;fill:rgb(25.098039%,25.098039%,25.098039%);fill-opacity:1;" d="M 47.367188 52.632812 C 38.421875 52.632812 31.578125 45.789062 31.578125 36.84375 C 31.578125 27.894531 38.421875 21.050781 47.367188 21.050781 C 56.316406 21.050781 63.15625 27.894531 63.15625 36.84375 C 63.15625 45.789062 56.316406 52.632812 47.367188 52.632812 Z M 47.367188 26.316406 C 41.578125 26.316406 36.84375 31.050781 36.84375 36.84375 C 36.84375 42.632812 41.578125 47.367188 47.367188 47.367188 C 53.15625 47.367188 57.894531 42.632812 57.894531 36.84375 C 57.894531 31.050781 53.15625 26.316406 47.367188 26.316406 Z M 47.367188 26.316406 "/>
</g>
</svg>
