<?xml version="1.0" encoding="UTF-8"?>
<svg xmlns="http://www.w3.org/2000/svg" xmlns:xlink="http://www.w3.org/1999/xlink" width="100px" height="100px" viewBox="0 0 100 100" version="1.1">
<g id="surface1">
<path style=" stroke:none;fill-rule:nonzero;fill:rgb(25.098039%,25.098039%,25.098039%);fill-opacity:1;" d="M 16.316406 86.316406 C 15.789062 86.316406 14.738281 86.316406 14.210938 85.789062 C -5.261719 66.316406 -5.261719 34.738281 14.210938 15.261719 C 15.261719 14.210938 16.84375 14.210938 17.894531 15.261719 C 18.949219 16.316406 18.949219 17.894531 17.894531 18.949219 C 0.527344 36.316406 0.527344 64.738281 17.894531 82.105469 C 18.949219 83.15625 18.949219 84.738281 17.894531 85.789062 C 17.894531 85.789062 17.367188 86.316406 16.316406 86.316406 Z M 16.316406 86.316406 "/>
<path style=" stroke:none;fill-rule:nonzero;fill:rgb(25.098039%,25.098039%,25.098039%);fill-opacity:1;" d="M 83.683594 86.316406 C 83.15625 86.316406 82.105469 86.316406 81.578125 85.789062 C 80.527344 84.738281 80.527344 83.15625 81.578125 82.105469 C 98.949219 64.738281 98.949219 36.316406 81.578125 18.949219 C 80.527344 17.894531 80.527344 16.316406 81.578125 15.261719 C 82.632812 14.210938 84.210938 14.210938 85.261719 15.261719 C 104.738281 34.738281 104.738281 66.316406 85.261719 85.789062 C 84.738281 85.789062 84.210938 86.316406 83.683594 86.316406 Z M 83.683594 86.316406 "/>
<path style=" stroke:none;fill-rule:nonzero;fill:rgb(25.098039%,25.098039%,25.098039%);fill-opacity:1;" d="M 50 89.472656 C 28.421875 89.472656 10.527344 71.578125 10.527344 50 C 10.527344 28.421875 28.421875 10.527344 50 10.527344 C 71.578125 10.527344 89.472656 28.421875 89.472656 50 C 89.472656 71.578125 71.578125 89.472656 50 89.472656 Z M 50 15.789062 C 31.050781 15.789062 15.789062 31.050781 15.789062 50 C 15.789062 68.949219 31.050781 84.210938 50 84.210938 C 68.949219 84.210938 84.210938 68.949219 84.210938 50 C 84.210938 31.050781 68.949219 15.789062 50 15.789062 Z M 50 15.789062 "/>
<path style=" stroke:none;fill-rule:nonzero;fill:rgb(25.098039%,25.098039%,25.098039%);fill-opacity:1;" d="M 50 78.949219 C 45.789062 78.949219 42.105469 75.261719 42.105469 71.050781 C 42.105469 66.84375 45.789062 63.15625 50 63.15625 C 54.210938 63.15625 57.894531 66.84375 57.894531 71.050781 C 57.894531 75.261719 54.210938 78.949219 50 78.949219 Z M 50 68.421875 C 48.421875 68.421875 47.367188 69.472656 47.367188 71.050781 C 47.367188 72.632812 48.421875 73.683594 50 73.683594 C 51.578125 73.683594 52.632812 72.632812 52.632812 71.050781 C 52.632812 69.472656 51.578125 68.421875 50 68.421875 Z M 50 68.421875 "/>
<path style=" stroke:none;fill-rule:nonzero;fill:rgb(25.098039%,25.098039%,25.098039%);fill-opacity:1;" d="M 50 60.527344 C 46.316406 60.527344 43.15625 57.894531 42.632812 54.210938 L 39.472656 29.472656 C 39.472656 27.367188 40 25.261719 41.578125 23.683594 C 43.15625 22.105469 44.738281 21.050781 46.84375 21.050781 L 53.15625 21.050781 C 55.261719 21.050781 57.367188 22.105469 58.949219 23.683594 C 60.527344 25.261719 61.050781 27.367188 60.527344 29.472656 L 57.367188 54.210938 C 56.84375 57.894531 53.683594 60.527344 50 60.527344 Z M 46.84375 26.316406 C 46.316406 26.316406 45.789062 26.84375 45.261719 26.84375 C 44.738281 26.84375 44.738281 28.421875 44.738281 28.949219 L 47.894531 53.683594 C 47.894531 54.738281 48.949219 55.789062 50 55.789062 C 51.050781 55.789062 52.105469 54.738281 52.105469 53.683594 L 55.261719 28.949219 C 55.261719 28.421875 55.261719 27.894531 54.738281 27.367188 C 54.210938 26.84375 53.683594 26.316406 53.15625 26.316406 Z M 46.84375 26.316406 "/>
</g>
</svg>
