<?xml version="1.0" encoding="UTF-8"?>
<svg xmlns="http://www.w3.org/2000/svg" xmlns:xlink="http://www.w3.org/1999/xlink" width="100px" height="100px" viewBox="0 0 100 100" version="1.1">
<g id="surface1">
<path style=" stroke:none;fill-rule:nonzero;fill:rgb(25.098039%,25.098039%,25.098039%);fill-opacity:1;" d="M 26.316406 42.105469 C 20.527344 42.105469 15.789062 37.367188 15.789062 31.578125 L 15.789062 15.789062 C 15.789062 10 20.527344 5.261719 26.316406 5.261719 C 32.105469 5.261719 36.84375 10 36.84375 15.789062 L 36.84375 31.578125 C 36.84375 37.367188 32.105469 42.105469 26.316406 42.105469 Z M 26.316406 10.527344 C 23.15625 10.527344 21.050781 12.632812 21.050781 15.789062 L 21.050781 31.578125 C 21.050781 34.738281 23.15625 36.84375 26.316406 36.84375 C 29.472656 36.84375 31.578125 34.738281 31.578125 31.578125 L 31.578125 15.789062 C 31.578125 12.632812 29.472656 10.527344 26.316406 10.527344 Z M 26.316406 10.527344 "/>
<path style=" stroke:none;fill-rule:nonzero;fill:rgb(25.098039%,25.098039%,25.098039%);fill-opacity:1;" d="M 73.683594 42.105469 C 67.894531 42.105469 63.15625 37.367188 63.15625 31.578125 L 63.15625 15.789062 C 63.15625 10 67.894531 5.261719 73.683594 5.261719 C 79.472656 5.261719 84.210938 10 84.210938 15.789062 L 84.210938 31.578125 C 84.210938 37.367188 79.472656 42.105469 73.683594 42.105469 Z M 73.683594 10.527344 C 70.527344 10.527344 68.421875 12.632812 68.421875 15.789062 L 68.421875 31.578125 C 68.421875 34.738281 70.527344 36.84375 73.683594 36.84375 C 76.84375 36.84375 78.949219 34.738281 78.949219 31.578125 L 78.949219 15.789062 C 78.949219 12.632812 76.84375 10.527344 73.683594 10.527344 Z M 73.683594 10.527344 "/>
<path style=" stroke:none;fill-rule:nonzero;fill:rgb(25.098039%,25.098039%,25.098039%);fill-opacity:1;" d="M 26.316406 94.738281 C 20.527344 94.738281 15.789062 90 15.789062 84.210938 L 15.789062 68.421875 C 15.789062 62.632812 20.527344 57.894531 26.316406 57.894531 C 32.105469 57.894531 36.84375 62.632812 36.84375 68.421875 L 36.84375 84.210938 C 36.84375 90 32.105469 94.738281 26.316406 94.738281 Z M 26.316406 63.15625 C 23.15625 63.15625 21.050781 65.261719 21.050781 68.421875 L 21.050781 84.210938 C 21.050781 87.367188 23.15625 89.472656 26.316406 89.472656 C 29.472656 89.472656 31.578125 87.367188 31.578125 84.210938 L 31.578125 68.421875 C 31.578125 65.261719 29.472656 63.15625 26.316406 63.15625 Z M 26.316406 63.15625 "/>
<path style=" stroke:none;fill-rule:nonzero;fill:rgb(25.098039%,25.098039%,25.098039%);fill-opacity:1;" d="M 73.683594 94.738281 C 67.894531 94.738281 63.15625 90 63.15625 84.210938 L 63.15625 68.421875 C 63.15625 62.632812 67.894531 57.894531 73.683594 57.894531 C 79.472656 57.894531 84.210938 62.632812 84.210938 68.421875 L 84.210938 84.210938 C 84.210938 90 79.472656 94.738281 73.683594 94.738281 Z M 73.683594 63.15625 C 70.527344 63.15625 68.421875 65.261719 68.421875 68.421875 L 68.421875 84.210938 C 68.421875 87.367188 70.527344 89.472656 73.683594 89.472656 C 76.84375 89.472656 78.949219 87.367188 78.949219 84.210938 L 78.949219 68.421875 C 78.949219 65.261719 76.84375 63.15625 73.683594 63.15625 Z M 73.683594 63.15625 "/>
<path style=" stroke:none;fill-rule:nonzero;fill:rgb(25.098039%,25.098039%,25.098039%);fill-opacity:1;" d="M 36.84375 21.050781 L 63.15625 21.050781 L 63.15625 26.316406 L 36.84375 26.316406 Z M 36.84375 21.050781 "/>
<path style=" stroke:none;fill-rule:nonzero;fill:rgb(25.098039%,25.098039%,25.098039%);fill-opacity:1;" d="M 36.84375 73.683594 L 63.15625 73.683594 L 63.15625 78.949219 L 36.84375 78.949219 Z M 36.84375 73.683594 "/>
<path style=" stroke:none;fill-rule:nonzero;fill:rgb(25.098039%,25.098039%,25.098039%);fill-opacity:1;" d="M 47.367188 26.316406 L 52.632812 26.316406 L 52.632812 73.683594 L 47.367188 73.683594 Z M 47.367188 26.316406 "/>
</g>
</svg>
