<?xml version="1.0" encoding="UTF-8"?>
<svg xmlns="http://www.w3.org/2000/svg" xmlns:xlink="http://www.w3.org/1999/xlink" width="100px" height="100px" viewBox="0 0 100 100" version="1.1">
<g id="surface1">
<path style=" stroke:none;fill-rule:nonzero;fill:rgb(25.098039%,25.098039%,25.098039%);fill-opacity:1;" d="M 37.367188 72.632812 C 36.84375 72.632812 35.789062 72.632812 35.261719 72.632812 L 23.15625 71.050781 C 13.15625 68.949219 5.261719 60.527344 5.261719 50 C 5.261719 39.472656 13.15625 31.050781 23.15625 29.472656 L 35.261719 27.894531 C 42.632812 26.84375 49.472656 31.578125 51.050781 38.949219 C 52.105469 42.105469 52.632812 46.316406 52.632812 50 C 52.632812 54.210938 52.105469 57.894531 51.050781 62.105469 C 49.472656 68.421875 43.683594 72.632812 37.367188 72.632812 Z M 35.789062 67.367188 C 40.527344 67.894531 44.738281 65.261719 45.789062 61.050781 C 46.84375 57.367188 47.367188 54.210938 47.367188 50.527344 C 47.367188 46.84375 46.84375 43.683594 46.316406 40.527344 C 44.738281 35.261719 40.527344 32.105469 35.789062 32.632812 L 23.683594 34.738281 C 16.316406 35.789062 10.527344 42.105469 10.527344 50 C 10.527344 57.894531 16.316406 64.210938 23.683594 65.261719 Z M 35.789062 67.367188 "/>
<path style=" stroke:none;fill-rule:nonzero;fill:rgb(25.098039%,25.098039%,25.098039%);fill-opacity:1;" d="M 60.527344 36.84375 C 59.472656 36.84375 58.421875 36.316406 57.894531 35.261719 C 57.367188 33.683594 58.421875 32.632812 59.472656 32.105469 L 91.050781 21.578125 C 92.632812 21.050781 93.683594 22.105469 94.210938 23.15625 C 94.738281 24.738281 93.683594 25.789062 92.632812 26.316406 L 61.050781 36.84375 C 61.050781 36.84375 61.050781 36.84375 60.527344 36.84375 Z M 60.527344 36.84375 "/>
<path style=" stroke:none;fill-rule:nonzero;fill:rgb(25.098039%,25.098039%,25.098039%);fill-opacity:1;" d="M 60.527344 47.367188 C 59.472656 47.367188 58.421875 46.84375 57.894531 45.789062 C 57.367188 44.210938 58.421875 43.15625 59.472656 42.632812 L 91.050781 32.105469 C 92.632812 31.578125 93.683594 32.632812 94.210938 33.683594 C 94.738281 35.261719 93.683594 36.316406 92.632812 36.84375 L 61.050781 47.367188 C 61.050781 47.367188 61.050781 47.367188 60.527344 47.367188 Z M 60.527344 47.367188 "/>
<path style=" stroke:none;fill-rule:nonzero;fill:rgb(25.098039%,25.098039%,25.098039%);fill-opacity:1;" d="M 60.527344 57.894531 C 59.472656 57.894531 58.421875 57.367188 57.894531 56.316406 C 57.367188 54.738281 58.421875 53.683594 59.472656 53.15625 L 91.050781 42.632812 C 92.632812 42.105469 93.683594 43.15625 94.210938 44.210938 C 94.738281 45.789062 93.683594 46.84375 92.632812 47.367188 L 61.050781 57.894531 C 61.050781 57.894531 61.050781 57.894531 60.527344 57.894531 Z M 60.527344 57.894531 "/>
<path style=" stroke:none;fill-rule:nonzero;fill:rgb(25.098039%,25.098039%,25.098039%);fill-opacity:1;" d="M 60.527344 68.421875 C 59.472656 68.421875 58.421875 67.894531 57.894531 66.84375 C 57.367188 65.261719 58.421875 64.210938 59.472656 63.683594 L 91.050781 53.15625 C 92.632812 52.632812 93.683594 53.683594 94.210938 54.738281 C 94.738281 56.316406 93.683594 57.367188 92.632812 57.894531 L 61.050781 68.421875 C 61.050781 68.421875 61.050781 68.421875 60.527344 68.421875 Z M 60.527344 68.421875 "/>
<path style=" stroke:none;fill-rule:nonzero;fill:rgb(25.098039%,25.098039%,25.098039%);fill-opacity:1;" d="M 31.578125 28.949219 L 36.84375 28.949219 L 36.84375 70.527344 L 31.578125 70.527344 Z M 31.578125 28.949219 "/>
</g>
</svg>
