<?xml version="1.0" encoding="UTF-8"?>
<svg xmlns="http://www.w3.org/2000/svg" xmlns:xlink="http://www.w3.org/1999/xlink" width="100px" height="100px" viewBox="0 0 100 100" version="1.1">
<g id="surface1">
<path style=" stroke:none;fill-rule:nonzero;fill:rgb(25.098039%,25.098039%,25.098039%);fill-opacity:1;" d="M 78.949219 73.683594 L 22.632812 73.683594 C 13.683594 73.683594 5.789062 66.84375 4.738281 58.421875 C 4.738281 57.367188 4.738281 56.316406 4.210938 54.738281 C 4.210938 50.527344 4.210938 46.316406 4.738281 42.632812 C 5.789062 34.738281 12.105469 28.949219 20 27.367188 L 58.421875 21.578125 C 63.683594 21.050781 68.949219 22.105469 72.632812 25.789062 C 76.84375 28.949219 78.949219 34.210938 78.949219 39.472656 Z M 61.050781 26.84375 C 60.527344 26.84375 60 26.84375 58.949219 26.84375 L 20.527344 32.632812 C 14.738281 33.683594 10.527344 37.894531 10 43.15625 C 9.472656 46.84375 9.472656 50.527344 9.472656 54.210938 C 9.472656 55.261719 9.472656 56.316406 10 57.367188 C 10.527344 63.683594 15.789062 68.421875 22.632812 68.421875 L 73.683594 68.421875 L 73.683594 39.472656 C 73.683594 35.789062 72.105469 32.105469 69.472656 30 C 66.84375 27.894531 64.210938 26.84375 61.050781 26.84375 Z M 61.050781 26.84375 "/>
<path style=" stroke:none;fill-rule:nonzero;fill:rgb(25.098039%,25.098039%,25.098039%);fill-opacity:1;" d="M 78.949219 52.632812 L 94.738281 52.632812 L 94.738281 57.894531 L 78.949219 57.894531 Z M 78.949219 52.632812 "/>
<path style=" stroke:none;fill-rule:nonzero;fill:rgb(25.098039%,25.098039%,25.098039%);fill-opacity:1;" d="M 68.421875 68.421875 L 94.738281 68.421875 L 94.738281 73.683594 L 68.421875 73.683594 Z M 68.421875 68.421875 "/>
<path style=" stroke:none;fill-rule:nonzero;fill:rgb(25.098039%,25.098039%,25.098039%);fill-opacity:1;" d="M 92.105469 84.210938 C 90.527344 84.210938 89.472656 83.15625 89.472656 81.578125 L 89.472656 39.472656 C 89.472656 37.894531 90.527344 36.84375 92.105469 36.84375 C 93.683594 36.84375 94.738281 37.894531 94.738281 39.472656 L 94.738281 81.578125 C 94.738281 83.15625 93.683594 84.210938 92.105469 84.210938 Z M 92.105469 84.210938 "/>
<path style=" stroke:none;fill-rule:nonzero;fill:rgb(25.098039%,25.098039%,25.098039%);fill-opacity:1;" d="M 31.578125 26.316406 L 36.84375 26.316406 L 36.84375 73.683594 L 31.578125 73.683594 Z M 31.578125 26.316406 "/>
</g>
</svg>
