<?xml version="1.0" encoding="UTF-8"?>
<svg xmlns="http://www.w3.org/2000/svg" xmlns:xlink="http://www.w3.org/1999/xlink" width="100px" height="100px" viewBox="0 0 100 100" version="1.1">
<g id="surface1">
<path style=" stroke:none;fill-rule:nonzero;fill:rgb(25.098039%,25.098039%,25.098039%);fill-opacity:1;" d="M 50 95.789062 C 47.894531 95.789062 46.316406 95.261719 44.738281 93.683594 C 41.050781 90 33.683594 86.316406 19.472656 89.472656 L 17.367188 90 L 10 75.789062 L 12.105469 74.738281 C 12.105469 74.738281 26.84375 64.738281 26.84375 50.527344 C 26.316406 36.316406 12.632812 31.578125 12.105469 31.578125 L 9.472656 30.527344 L 16.84375 15.261719 L 19.472656 15.789062 C 20 15.789062 33.683594 20 42.632812 6.316406 L 43.15625 5.261719 L 56.316406 5.261719 L 56.84375 6.316406 C 57.894531 6.84375 67.367188 20.527344 80.527344 15.789062 L 82.632812 15.261719 L 90 30 L 87.894531 31.050781 C 84.210938 33.683594 73.683594 42.632812 73.683594 50 C 73.683594 57.894531 84.738281 70.527344 88.949219 74.210938 L 90.527344 75.789062 L 83.683594 90 L 81.050781 89.472656 C 81.050781 89.472656 63.15625 85.789062 55.261719 93.683594 C 53.683594 95.261719 51.578125 95.789062 50 95.789062 Z M 28.421875 83.15625 C 38.421875 83.15625 44.210938 86.84375 47.894531 90 C 48.949219 91.050781 50.527344 91.050781 51.578125 90 C 59.472656 82.105469 74.738281 83.15625 80 84.210938 L 83.683594 76.84375 C 79.472656 72.632812 68.421875 60 68.421875 50 C 68.421875 40.527344 78.949219 31.578125 83.683594 27.894531 L 80.527344 21.578125 C 68.421875 24.210938 58.421875 16.316406 54.210938 10.527344 L 46.316406 10.527344 C 37.367188 23.15625 25.261719 22.105469 20 21.578125 L 16.84375 27.367188 C 23.15625 30.527344 31.578125 37.894531 31.578125 50 C 31.578125 63.683594 21.050781 73.683594 16.316406 77.367188 L 19.472656 84.210938 C 23.15625 83.15625 25.789062 83.15625 28.421875 83.15625 Z M 28.421875 83.15625 "/>
<path style=" stroke:none;fill-rule:nonzero;fill:rgb(25.098039%,25.098039%,25.098039%);fill-opacity:1;" d="M 28.421875 42.105469 L 25.261719 37.894531 C 25.261719 37.894531 27.367188 36.316406 30 34.738281 L 32.105469 39.472656 C 30 40.527344 28.421875 42.105469 28.421875 42.105469 Z M 28.421875 42.105469 "/>
<path style=" stroke:none;fill-rule:nonzero;fill:rgb(25.098039%,25.098039%,25.098039%);fill-opacity:1;" d="M 63.683594 37.894531 C 60 36.84375 56.84375 35.789062 53.15625 35.789062 L 53.683594 30.527344 C 57.367188 31.050781 61.578125 31.578125 65.261719 33.15625 Z M 37.367188 37.367188 L 35.789062 32.105469 C 39.472656 31.050781 43.683594 30 47.367188 30 L 47.367188 35.261719 C 44.210938 35.789062 41.050781 36.316406 37.367188 37.367188 Z M 37.367188 37.367188 "/>
<path style=" stroke:none;fill-rule:nonzero;fill:rgb(25.098039%,25.098039%,25.098039%);fill-opacity:1;" d="M 73.15625 42.105469 C 71.578125 41.050781 70 40.527344 68.421875 40 L 70.527344 35.261719 C 72.105469 35.789062 73.683594 36.84375 75.261719 37.894531 Z M 73.15625 42.105469 "/>
<path style=" stroke:none;fill-rule:nonzero;fill:rgb(25.098039%,25.098039%,25.098039%);fill-opacity:1;" d="M 52.632812 81.578125 L 47.367188 81.578125 L 47.367188 71.050781 L 52.632812 71.050781 Z M 52.632812 65.789062 L 47.367188 65.789062 L 47.367188 55.261719 L 52.632812 55.261719 Z M 52.632812 50 L 47.367188 50 L 47.367188 39.472656 L 52.632812 39.472656 Z M 52.632812 50 "/>
</g>
</svg>
