<?xml version="1.0" encoding="UTF-8"?>
<svg xmlns="http://www.w3.org/2000/svg" xmlns:xlink="http://www.w3.org/1999/xlink" width="100px" height="100px" viewBox="0 0 100 100" version="1.1">
<g id="surface1">
<path style=" stroke:none;fill-rule:nonzero;fill:rgb(25.098039%,25.098039%,25.098039%);fill-opacity:1;" d="M 72.632812 43.15625 C 72.105469 43.15625 71.050781 43.15625 70.527344 42.632812 C 61.050781 33.15625 45.261719 33.15625 35.789062 42.632812 C 34.738281 43.15625 33.15625 43.15625 32.105469 42.105469 C 31.050781 41.050781 31.050781 39.472656 32.105469 38.421875 C 43.683594 26.84375 62.632812 26.84375 74.210938 38.421875 C 75.261719 39.472656 75.261719 41.050781 74.210938 42.105469 C 73.683594 42.632812 73.15625 43.15625 72.632812 43.15625 Z M 72.632812 43.15625 "/>
<path style=" stroke:none;fill-rule:nonzero;fill:rgb(25.098039%,25.098039%,25.098039%);fill-opacity:1;" d="M 80 35.261719 C 79.472656 35.261719 78.421875 35.261719 77.894531 34.738281 C 64.210938 21.050781 41.578125 21.050781 27.367188 34.738281 C 26.316406 35.789062 24.738281 35.789062 23.683594 34.738281 C 22.632812 33.683594 23.15625 31.578125 24.210938 31.050781 C 40 15.261719 66.316406 15.261719 82.105469 31.050781 C 83.15625 32.105469 83.15625 33.683594 82.105469 34.738281 C 81.578125 35.261719 81.050781 35.261719 80 35.261719 Z M 80 35.261719 "/>
<path style=" stroke:none;fill-rule:nonzero;fill:rgb(25.098039%,25.098039%,25.098039%);fill-opacity:1;" d="M 87.894531 27.367188 C 87.367188 27.367188 86.316406 27.367188 85.789062 26.84375 C 76.84375 17.894531 65.261719 13.15625 52.632812 13.15625 C 40 13.15625 28.949219 17.894531 20 26.84375 C 18.949219 27.894531 17.367188 27.894531 16.316406 26.84375 C 15.261719 25.789062 15.261719 24.210938 16.316406 23.15625 C 26.316406 13.15625 38.949219 7.894531 53.15625 7.894531 C 67.367188 7.894531 80 13.15625 90 23.15625 C 91.050781 24.210938 91.050781 25.789062 90 26.84375 C 89.472656 27.367188 88.421875 27.367188 87.894531 27.367188 Z M 87.894531 27.367188 "/>
<path style=" stroke:none;fill-rule:nonzero;fill:rgb(25.098039%,25.098039%,25.098039%);fill-opacity:1;" d="M 69.472656 63.15625 C 69.472656 60.527344 69.472656 58.421875 65.789062 58.421875 C 65.789062 54.738281 65.789062 51.578125 65.261719 50 C 63.683594 42.105469 58.421875 42.105469 52.632812 42.105469 C 46.84375 42.105469 41.050781 42.105469 40 50 C 40 51.578125 39.472656 54.738281 39.472656 58.421875 C 35.789062 58.421875 35.789062 60.527344 35.789062 63.15625 L 39.472656 63.15625 C 39.472656 73.15625 39.472656 85.789062 40 92.105469 C 40 94.738281 42.105469 97.367188 44.738281 97.894531 C 48.421875 98.949219 52.632812 98.421875 52.632812 98.421875 C 52.632812 98.421875 56.84375 98.421875 60.527344 97.894531 C 63.15625 97.367188 65.261719 94.738281 65.261719 92.105469 C 65.261719 85.789062 65.789062 73.15625 65.789062 63.15625 Z M 52.632812 88.421875 C 47.894531 88.421875 45.789062 87.894531 44.210938 87.367188 C 43.683594 87.367188 43.15625 86.316406 43.683594 85.789062 L 44.738281 81.578125 C 44.738281 81.050781 45.261719 80.527344 46.316406 80.527344 C 49.472656 81.050781 56.316406 81.050781 59.472656 80.527344 C 60 80.527344 60.527344 81.050781 61.050781 81.578125 L 62.105469 85.789062 C 62.105469 86.316406 62.105469 86.84375 61.578125 87.367188 C 59.472656 87.894531 57.367188 88.421875 52.632812 88.421875 Z M 60.527344 62.105469 C 60.527344 63.15625 59.472656 63.683594 58.949219 63.15625 C 57.367188 63.15625 55.261719 63.15625 53.15625 62.632812 C 50.527344 62.632812 48.421875 62.632812 47.367188 63.15625 C 46.316406 63.15625 45.789062 62.632812 45.789062 62.105469 L 44.738281 57.894531 C 44.738281 56.84375 44.738281 55.789062 45.789062 55.789062 C 47.367188 55.261719 50.527344 54.738281 53.683594 54.738281 C 56.84375 54.738281 59.472656 55.261719 61.578125 55.789062 C 62.632812 56.316406 63.15625 56.84375 62.632812 57.894531 Z M 60.527344 62.105469 "/>
</g>
</svg>
